<?xml version="1.0" encoding="UTF-8"?>
<svg version="1.1" xmlns="http://www.w3.org/2000/svg" width="1080" height="1080">
<path d="M0 0 C4.89022421 0.01139343 9.78023056 0.00461336 14.67044735 -0.00688553 C110.06805076 -0.19673281 110.06805076 -0.19673281 149.87109375 17.26074219 C151.84613331 17.91908871 153.82576622 18.56373738 155.80859375 19.19824219 C160.09322447 20.59621634 164.00744032 22.19980875 167.98046875 24.31152344 C171.17327764 25.9145246 174.50942884 27.06014758 177.87109375 28.26074219 C177.87109375 28.92074219 177.87109375 29.58074219 177.87109375 30.26074219 C178.5878125 30.37546875 179.30453125 30.49019531 180.04296875 30.60839844 C183.01990926 31.29506842 185.39762268 32.3242755 188.12109375 33.69824219 C188.9925 34.13007813 189.86390625 34.56191406 190.76171875 35.00683594 C192.87109375 36.26074219 192.87109375 36.26074219 193.87109375 38.26074219 C195.52670475 39.1946766 197.22059897 40.06177002 198.93359375 40.88574219 C199.85269531 41.33175781 200.77179687 41.77777344 201.71875 42.23730469 C202.42902344 42.57503906 203.13929688 42.91277344 203.87109375 43.26074219 C203.87109375 43.92074219 203.87109375 44.58074219 203.87109375 45.26074219 C204.59296875 45.52886719 205.31484375 45.79699219 206.05859375 46.07324219 C210.37671654 47.89644959 213.23957838 49.31346913 215.87109375 53.26074219 C216.69609375 53.73511719 217.52109375 54.20949219 218.37109375 54.69824219 C220.87109375 56.26074219 220.87109375 56.26074219 221.87109375 58.32324219 C223.27895695 61.05097713 225.05576142 61.23074255 227.87109375 62.26074219 C229.68359375 63.76074219 229.68359375 63.76074219 230.87109375 65.26074219 C230.87109375 65.92074219 230.87109375 66.58074219 230.87109375 67.26074219 C231.44730469 67.51210937 232.02351562 67.76347656 232.6171875 68.02246094 C238.37910202 71.18801883 242.67476527 76.62911581 245.87109375 82.26074219 C246.71671875 83.10636719 247.56234375 83.95199219 248.43359375 84.82324219 C250.65117999 87.04082842 251.54528954 88.52074683 252.87109375 91.26074219 C253.46664062 91.83308594 254.0621875 92.40542969 254.67578125 92.99511719 C261.10392006 99.62913945 265.47372645 108.42045026 267.87109375 117.26074219 C268.53109375 117.26074219 269.19109375 117.26074219 269.87109375 117.26074219 C270.71271229 119.3407423 271.54410138 121.42488365 272.37109375 123.51074219 C272.83515625 124.67089844 273.29921875 125.83105469 273.77734375 127.02636719 C274.87109375 130.26074219 274.87109375 130.26074219 274.87109375 134.26074219 C275.53109375 134.26074219 276.19109375 134.26074219 276.87109375 134.26074219 C279.31517899 141.61573359 281.34567928 148.51087868 281.87109375 156.26074219 C282.53109375 156.26074219 283.19109375 156.26074219 283.87109375 156.26074219 C286.87092412 173.17569954 288.87109375 189.03426549 288.87109375 206.26074219 C217.26109375 206.26074219 145.65109375 206.26074219 71.87109375 206.26074219 C69.62109375 196.13574219 69.62109375 196.13574219 69.87109375 191.26074219 C69.21109375 191.26074219 68.55109375 191.26074219 67.87109375 191.26074219 C67.59136719 190.30554688 67.31164062 189.35035156 67.0234375 188.36621094 C63.11027759 175.53557763 57.08393848 166.06906797 47.87109375 156.26074219 C45.06355425 163.05332391 42.58180172 169.89754331 40.30859375 176.88574219 C38.50825422 182.39454163 36.67111443 187.86646452 34.60571289 193.28173828 C33.2599718 196.90705477 32.07497288 200.58640275 30.87109375 204.26074219 C29.26396801 209.16582387 27.58576892 214.01528765 25.75048828 218.84082031 C24.59221587 222.0281596 23.52486554 225.24414985 22.4609375 228.46386719 C22.24619781 229.11359497 22.03145813 229.76332275 21.81021118 230.43273926 C20.91433901 233.14807597 20.02065236 235.86411974 19.12963867 238.58105469 C18.47188709 240.58454268 17.81039163 242.58676448 17.1484375 244.58886719 C16.75906006 245.77383789 16.36968262 246.95880859 15.96850586 248.1796875 C14.87109375 251.26074219 14.87109375 251.26074219 12.87109375 255.26074219 C16.17109375 255.92074219 19.47109375 256.58074219 22.87109375 257.26074219 C22.87109375 257.92074219 22.87109375 258.58074219 22.87109375 259.26074219 C24.14339844 259.380625 25.41570313 259.50050781 26.7265625 259.62402344 C31.97027673 260.2096107 37.04208827 261.28347632 42.18359375 262.44824219 C44.19779675 262.89539726 46.21212587 263.34198452 48.2265625 263.78808594 C49.29181152 264.0251123 50.35706055 264.26213867 51.45458984 264.50634766 C57.62893724 265.86969862 63.81285168 267.18843082 69.99609375 268.51074219 C71.19919189 268.76879639 72.40229004 269.02685059 73.6418457 269.29272461 C78.38022573 270.30782634 83.11726376 271.32018547 87.87109375 272.26074219 C87.87109375 272.92074219 87.87109375 273.58074219 87.87109375 274.26074219 C89.12921875 274.34324219 90.38734375 274.42574219 91.68359375 274.51074219 C100.19449135 275.3359667 108.5341997 277.4204627 116.87109375 279.26074219 C116.87109375 279.92074219 116.87109375 280.58074219 116.87109375 281.26074219 C118.16917969 281.37675781 119.46726562 281.49277344 120.8046875 281.61230469 C125.67768842 282.15576204 130.23269061 283.27292644 134.93359375 284.63574219 C135.68447266 284.84457031 136.43535156 285.05339844 137.20898438 285.26855469 C141.55608955 286.50092331 145.77804374 287.92342433 149.99389648 289.546875 C152.75869043 290.59828058 155.5621185 291.52255716 158.37109375 292.44824219 C159.41265625 292.79242188 160.45421875 293.13660156 161.52734375 293.49121094 C162.30078125 293.74515625 163.07421875 293.99910156 163.87109375 294.26074219 C163.87109375 294.92074219 163.87109375 295.58074219 163.87109375 296.26074219 C164.65484375 296.34324219 165.43859375 296.42574219 166.24609375 296.51074219 C173.19995672 297.94947246 179.55830568 301.00599251 185.84375 304.24511719 C189.45629465 306.0548698 193.16703458 307.64879051 196.87109375 309.26074219 C196.87109375 309.92074219 196.87109375 310.58074219 196.87109375 311.26074219 C197.92296875 311.52886719 198.97484375 311.79699219 200.05859375 312.07324219 C203.46182287 313.13326437 206.00268293 314.17462523 208.87109375 316.26074219 C208.87109375 316.92074219 208.87109375 317.58074219 208.87109375 318.26074219 C209.57234375 318.52886719 210.27359375 318.79699219 210.99609375 319.07324219 C216.24267563 321.24030862 220.49255227 323.64844547 224.87109375 327.26074219 C225.96421875 327.96199219 227.05734375 328.66324219 228.18359375 329.38574219 C229.07046875 330.00449219 229.95734375 330.62324219 230.87109375 331.26074219 C230.87109375 331.92074219 230.87109375 332.58074219 230.87109375 333.26074219 C231.59425781 333.49148438 232.31742188 333.72222656 233.0625 333.95996094 C236.40681644 335.50885854 238.27683233 337.40549359 240.80859375 340.07324219 C244.7557894 344.17526341 244.7557894 344.17526341 249.05859375 347.88574219 C253.85755001 351.93819414 258.43947032 356.02102498 259.87109375 362.26074219 C260.76828125 362.66292969 260.76828125 362.66292969 261.68359375 363.07324219 C264.48750977 364.59536803 265.3624235 366.6047766 266.74609375 369.40917969 C267.84793148 371.3943918 267.84793148 371.3943918 269.80859375 373.15917969 C272.06694199 375.46029968 273.37366727 377.6623766 274.87109375 380.51074219 C275.38542969 381.4865625 275.89976562 382.46238281 276.4296875 383.46777344 C276.90535156 384.38945313 277.38101563 385.31113281 277.87109375 386.26074219 C278.23332031 386.94523437 278.59554687 387.62972656 278.96875 388.33496094 C283.62123967 397.31972844 287.15027066 406.64497948 289.9765625 416.35058594 C290.80334183 419.21215306 290.80334183 419.21215306 291.890625 421.68652344 C304.09910585 453.7398656 298.36197399 495.63155017 291.87109375 528.26074219 C291.21109375 528.26074219 290.55109375 528.26074219 289.87109375 528.26074219 C289.7525 529.26492188 289.63390625 530.26910156 289.51171875 531.30371094 C288.17227037 540.62130729 284.42622573 549.86522027 279.984375 558.11230469 C278.77730821 560.44173182 277.81153516 562.81301797 276.87109375 565.26074219 C276.21109375 565.26074219 275.55109375 565.26074219 274.87109375 565.26074219 C274.52884766 566.50404297 274.52884766 566.50404297 274.1796875 567.77246094 C272.60375544 571.97337834 270.43562457 575.37254724 267.93359375 579.07324219 C267.49080078 579.75322266 267.04800781 580.43320312 266.59179688 581.13378906 C263.24536195 586.13598612 263.24536195 586.13598612 259.87109375 587.26074219 C259.1993949 588.92538716 258.53370725 590.59245997 257.87109375 592.26074219 C253.04734463 598.33974201 247.54618446 603.78744458 241.609375 608.77246094 C239.66197097 610.39511641 239.66197097 610.39511641 237.24609375 612.94824219 C234.64783531 615.4781254 231.91318617 617.2960575 228.87109375 619.26074219 C228.10539063 619.87820313 227.3396875 620.49566406 226.55078125 621.13183594 C218.09099288 627.85280483 201.209401 641.26074219 189.87109375 641.26074219 C189.87109375 641.92074219 189.87109375 642.58074219 189.87109375 643.26074219 C188.83210937 643.64746094 187.793125 644.03417969 186.72265625 644.43261719 C185.31370319 644.95839393 183.90485626 645.4844551 182.49609375 646.01074219 C181.76310059 646.28442627 181.03010742 646.55811035 180.27490234 646.84008789 C176.32411683 648.32108845 172.39781098 649.84128493 168.49609375 651.44824219 C162.08926913 654.03041939 155.85450812 656.5079427 148.87109375 656.26074219 C148.87109375 656.92074219 148.87109375 657.58074219 148.87109375 658.26074219 C138.88792175 660.64561105 129.17218992 662.85677763 118.87109375 663.26074219 C118.87109375 663.92074219 118.87109375 664.58074219 118.87109375 665.26074219 C114.95700042 665.81193254 111.04056885 666.34275274 107.12182617 666.85986328 C105.18740278 667.11851888 103.25475207 667.39033563 101.32226562 667.66308594 C71.5824894 671.66901177 41.41995192 671.58976 11.47436523 671.52148438 C6.44534054 671.51009867 1.41652778 671.51687733 -3.6124897 671.52835655 C-34.41342236 671.5880879 -65.30916233 671.31701415 -95.87890625 667.13574219 C-97.30453355 666.95095682 -98.73031722 666.76737406 -100.15625 666.58496094 C-103.48234328 666.15703299 -106.80618347 665.71420078 -110.12890625 665.26074219 C-110.12890625 664.60074219 -110.12890625 663.94074219 -110.12890625 663.26074219 C-110.86496094 663.20015625 -111.60101562 663.13957031 -112.359375 663.07714844 C-113.33519531 662.99335937 -114.31101562 662.90957031 -115.31640625 662.82324219 C-116.27933594 662.74203125 -117.24226562 662.66082031 -118.234375 662.57714844 C-120.91540227 662.28408068 -123.49520485 661.83370465 -126.12890625 661.26074219 C-127.44890625 664.23074219 -128.76890625 667.20074219 -130.12890625 670.26074219 C-201.40890625 670.26074219 -272.68890625 670.26074219 -346.12890625 670.26074219 C-346.78890625 663.99074219 -347.44890625 657.72074219 -348.12890625 651.26074219 C-348.92415289 645.45498233 -348.92415289 645.45498233 -349.76171875 639.65527344 C-350.10335134 636.49698915 -350.14171031 633.43623353 -350.10595703 630.26293945 C-350.14243998 627.07999606 -350.57758089 623.97477043 -351.00390625 620.82324219 C-351.18808859 619.42488209 -351.37166131 618.02644158 -351.5546875 616.62792969 C-351.64959473 615.91217773 -351.74450195 615.19642578 -351.84228516 614.45898438 C-353.27801717 603.44762916 -354.5412357 592.4119504 -355.33984375 581.33496094 C-355.8572079 574.17214348 -356.57712204 567.05421118 -357.39819336 559.92138672 C-357.90347081 555.47513348 -358.32132918 551.03860215 -358.62890625 546.57324219 C-358.95015184 541.99549248 -359.48390518 537.49170561 -360.12890625 532.94824219 C-360.94960712 527.07057567 -361.42261584 521.24371508 -361.734375 515.31884766 C-362.04196889 509.85773027 -362.67483174 504.47427671 -363.3984375 499.05444336 C-363.94389383 494.91721817 -364.34632403 490.79878377 -364.62890625 486.63574219 C-364.93655443 482.17484363 -365.45494272 477.80615007 -366.12890625 473.38574219 C-367.04469869 467.29841595 -367.49084857 461.26230655 -367.84765625 455.12011719 C-368.19031177 450.41812206 -368.77955862 445.7729371 -369.3984375 441.10107422 C-369.93520043 436.99023123 -370.34299477 432.89624752 -370.62890625 428.76074219 C-370.95143581 424.12650169 -371.45461993 419.55323843 -372.06640625 414.94824219 C-372.97926231 408.06775996 -373.58123732 401.17917666 -374.12890625 394.26074219 C-374.77242819 386.1748859 -375.55557699 378.15051306 -376.62109375 370.10839844 C-377.20770063 365.66372324 -377.73519831 361.21375719 -378.25390625 356.76074219 C-378.3415625 356.01123291 -378.42921875 355.26172363 -378.51953125 354.48950195 C-378.72319647 352.74664507 -378.92613601 351.00370342 -379.12890625 349.26074219 C-383.16090971 357.03482133 -383.16090971 357.03482133 -386.12890625 365.26074219 C-386.78890625 365.26074219 -387.44890625 365.26074219 -388.12890625 365.26074219 C-388.24234375 365.97101563 -388.35578125 366.68128906 -388.47265625 367.41308594 C-389.17829025 370.47503349 -390.27424402 372.99184062 -391.62890625 375.82324219 C-393.12447785 378.95785593 -394.42329186 381.85294544 -395.12890625 385.26074219 C-395.78890625 385.26074219 -396.44890625 385.26074219 -397.12890625 385.26074219 C-397.21140625 386.04449219 -397.29390625 386.82824219 -397.37890625 387.63574219 C-398.37255694 392.43838719 -400.21604143 396.75883708 -402.12890625 401.26074219 C-402.78890625 401.26074219 -403.44890625 401.26074219 -404.12890625 401.26074219 C-404.23074219 401.92460938 -404.33257812 402.58847656 -404.4375 403.27246094 C-405.3120916 407.05247546 -406.7149564 410.49345078 -408.19140625 414.07324219 C-408.47306641 414.76611328 -408.75472656 415.45898438 -409.04492188 416.17285156 C-409.73565598 417.87041843 -410.43174353 419.56580531 -411.12890625 421.26074219 C-411.78890625 421.26074219 -412.44890625 421.26074219 -413.12890625 421.26074219 C-413.25652344 421.9890625 -413.38414062 422.71738281 -413.515625 423.46777344 C-414.10083258 426.13289074 -414.89774548 428.43264551 -415.94140625 430.94824219 C-416.29332031 431.80546875 -416.64523437 432.66269531 -417.0078125 433.54589844 C-417.37777344 434.44179688 -417.74773437 435.33769531 -418.12890625 436.26074219 C-418.88110386 438.13486165 -419.63120067 440.00982605 -420.37890625 441.88574219 C-420.96223958 443.34407552 -421.54557292 444.80240885 -422.12890625 446.26074219 C-422.78890625 446.26074219 -423.44890625 446.26074219 -424.12890625 446.26074219 C-424.23976563 446.94394531 -424.350625 447.62714844 -424.46484375 448.33105469 C-426.57977716 457.66164328 -431.26129979 466.70870705 -435.3659668 475.3190918 C-439.24202958 483.5068864 -442.66150081 491.89393789 -446.12890625 500.26074219 C-446.78890625 500.26074219 -447.44890625 500.26074219 -448.12890625 500.26074219 C-448.27328125 501.00324219 -448.41765625 501.74574219 -448.56640625 502.51074219 C-449.03078117 504.78101958 -449.54754194 507.01833698 -450.12890625 509.26074219 C-450.78890625 509.26074219 -451.44890625 509.26074219 -452.12890625 509.26074219 C-452.32613281 510.36289062 -452.32613281 510.36289062 -452.52734375 511.48730469 C-454.22971875 519.33591668 -458.20324217 526.62561292 -461.62036133 533.84960938 C-463.69644318 538.26219932 -465.51144434 542.66374517 -467.12890625 547.26074219 C-467.78957344 548.92979614 -468.45328877 550.59768379 -469.12890625 552.26074219 C-469.78890625 552.26074219 -470.44890625 552.26074219 -471.12890625 552.26074219 C-471.27328125 553.00324219 -471.41765625 553.74574219 -471.56640625 554.51074219 C-472.03078117 556.78101958 -472.54754194 559.01833698 -473.12890625 561.26074219 C-473.78890625 561.26074219 -474.44890625 561.26074219 -475.12890625 561.26074219 C-475.23203125 561.92074219 -475.33515625 562.58074219 -475.44140625 563.26074219 C-477.04245773 570.24714865 -480.17335599 576.55666916 -483.22900391 582.99658203 C-485.67582561 588.19306872 -487.92645404 593.45662748 -490.12890625 598.76074219 C-492.7466814 605.05780657 -495.48346962 611.25869563 -498.4140625 617.41699219 C-500.95955896 622.80610632 -503.3006633 628.27480445 -505.62890625 633.76074219 C-508.75666035 641.12560812 -511.99380878 648.41561267 -515.42578125 655.64355469 C-517.70918422 660.49316742 -519.91080386 665.38091693 -522.12890625 670.26074219 C-593.40890625 670.26074219 -664.68890625 670.26074219 -738.12890625 670.26074219 C-738.06640625 570.94824219 -738.06640625 570.94824219 -738.03881836 539.92358398 C-738.03546806 530.51334398 -738.03546806 530.51334398 -738.03346252 521.10310364 C-738.03255391 517.00450568 -738.02890321 512.90592149 -738.02333069 508.80732727 C-737.9937847 486.07073414 -738.11948083 463.35308403 -738.63110352 440.62182617 C-739.25276893 412.8039582 -739.24480208 384.99042694 -739.20068244 357.1672845 C-739.18923561 349.73281258 -739.184983 342.29834028 -739.18113768 334.86386116 C-739.17414871 321.51145036 -739.16342454 308.15904584 -739.14941406 294.80664062 C-739.14858625 294.0163656 -739.14775844 293.22609057 -739.14690554 292.41186781 C-739.13934821 285.23027446 -739.13153983 278.04868137 -739.123703 270.86708832 C-739.09910263 248.28582639 -739.07802313 225.70456737 -739.06749105 203.123294 C-739.06640655 200.84731964 -739.06521555 198.57134535 -739.06401443 196.29537106 C-739.04315862 155.01529799 -739.17620977 113.74352448 -739.84312439 72.4678669 C-740.04114591 60.17348959 -740.18958509 47.88097983 -740.21702576 35.58501506 C-740.22074939 34.0591989 -740.22606368 32.53338571 -740.23304749 31.007581 C-740.24188414 28.90764319 -740.2440604 26.80780927 -740.24414062 24.70785522 C-740.24619507 23.5085758 -740.24824951 22.30929638 -740.25036621 21.07367516 C-740.12890625 18.26074219 -740.12890625 18.26074219 -739.12890625 16.26074219 C-672.79890625 16.26074219 -606.46890625 16.26074219 -538.12890625 16.26074219 C-538.12890625 108.33074219 -538.12890625 200.40074219 -538.12890625 295.26074219 C-535.99035775 293.12219369 -535.70235562 292.12798905 -535.12890625 289.26074219 C-534.46890625 289.26074219 -533.80890625 289.26074219 -533.12890625 289.26074219 C-533.04640625 288.60074219 -532.96390625 287.94074219 -532.87890625 287.26074219 C-532.04340939 283.91875476 -530.6923593 281.24435907 -529.06640625 278.22558594 C-528.12339199 276.24918521 -527.58563907 274.39691965 -527.12890625 272.26074219 C-526.46890625 272.26074219 -525.80890625 272.26074219 -525.12890625 272.26074219 C-524.98453125 271.51824219 -524.84015625 270.77574219 -524.69140625 270.01074219 C-524.22703133 267.74046479 -523.71027056 265.50314739 -523.12890625 263.26074219 C-522.46890625 263.26074219 -521.80890625 263.26074219 -521.12890625 263.26074219 C-520.94098511 262.16499878 -520.94098511 262.16499878 -520.74926758 261.04711914 C-520.15299581 258.36894138 -519.33701373 256.16936254 -518.203125 253.67871094 C-517.81833984 252.82857422 -517.43355469 251.9784375 -517.03710938 251.10253906 C-516.63427734 250.22662109 -516.23144531 249.35070312 -515.81640625 248.44824219 C-515.42517578 247.58392578 -515.03394531 246.71960938 -514.63085938 245.82910156 C-512.80216236 241.81082039 -510.93003478 237.82552686 -508.9375 233.88574219 C-507.64095676 231.32139602 -506.46415425 228.78623203 -505.50390625 226.07324219 C-505.26800781 225.4196875 -505.03210938 224.76613281 -504.7890625 224.09277344 C-504.57121094 223.48820313 -504.35335937 222.88363281 -504.12890625 222.26074219 C-503.46823906 220.59168824 -502.80452373 218.92380059 -502.12890625 217.26074219 C-501.46890625 217.26074219 -500.80890625 217.26074219 -500.12890625 217.26074219 C-500.0110376 216.54958252 -499.89316895 215.83842285 -499.77172852 215.10571289 C-499.09382977 212.10550247 -498.08493433 209.55351467 -496.84375 206.74121094 C-496.39580078 205.71962891 -495.94785156 204.69804687 -495.48632812 203.64550781 C-494.7834668 202.06286133 -494.7834668 202.06286133 -494.06640625 200.44824219 C-493.59396484 199.37380859 -493.12152344 198.299375 -492.63476562 197.19238281 C-491.47058089 194.54650843 -490.30182793 191.90275224 -489.12890625 189.26074219 C-488.46890625 189.26074219 -487.80890625 189.26074219 -487.12890625 189.26074219 C-486.98453125 188.51824219 -486.84015625 187.77574219 -486.69140625 187.01074219 C-486.22703133 184.74046479 -485.71027056 182.50314739 -485.12890625 180.26074219 C-484.46890625 180.26074219 -483.80890625 180.26074219 -483.12890625 180.26074219 C-483.03867187 179.60847656 -482.9484375 178.95621094 -482.85546875 178.28417969 C-481.88434126 174.24303625 -480.22506184 170.6581819 -478.50390625 166.88574219 C-478.14490234 166.08845703 -477.78589844 165.29117188 -477.41601562 164.46972656 C-474.91702419 158.93844921 -472.36091418 153.43465351 -469.77270508 147.94458008 C-467.49872238 143.10507844 -465.33949207 138.21969084 -463.19140625 133.32324219 C-460.6262267 127.481024 -457.91248446 121.75196113 -455.00390625 116.07324219 C-452.08200775 110.3642152 -449.58199575 104.59713014 -447.27246094 98.61669922 C-445.38510205 93.77315912 -443.15510104 89.19818127 -440.77734375 84.58105469 C-438.69138182 80.37947259 -436.77847329 76.11168476 -434.87890625 71.82324219 C-434.36674561 70.66828247 -434.36674561 70.66828247 -433.84423828 69.48999023 C-432.20512699 65.77159815 -430.6046129 62.0478873 -429.12890625 58.26074219 C-428.46890625 58.26074219 -427.80890625 58.26074219 -427.12890625 58.26074219 C-427.00217529 57.53185791 -426.87544434 56.80297363 -426.74487305 56.05200195 C-426.1549346 53.37868993 -425.35107661 51.11108689 -424.2734375 48.60058594 C-423.900979 47.72974365 -423.52852051 46.85890137 -423.14477539 45.96166992 C-422.74766357 45.04973877 -422.35055176 44.13780762 -421.94140625 43.19824219 C-421.53720459 42.26246338 -421.13300293 41.32668457 -420.71655273 40.36254883 C-417.74407379 33.53665949 -414.58056417 26.85850143 -411.12890625 20.26074219 C-410.46890625 18.94074219 -409.80890625 17.62074219 -409.12890625 16.26074219 C-352.03890625 16.26074219 -294.94890625 16.26074219 -236.12890625 16.26074219 C-233.88170218 24.12595642 -233.88170218 24.12595642 -233.56640625 28.11621094 C-233.45619141 29.41171875 -233.45619141 29.41171875 -233.34375 30.73339844 C-233.27285156 31.62929687 -233.20195313 32.52519531 -233.12890625 33.44824219 C-232.54323329 40.17883302 -231.84792203 46.81186187 -230.63671875 53.46386719 C-230.03022009 56.80427518 -229.51526258 60.15451616 -229.00390625 63.51074219 C-228.83632813 64.60902344 -228.66875 65.70730469 -228.49609375 66.83886719 C-228.37492187 67.63808594 -228.25375 68.43730469 -228.12890625 69.26074219 C-224.4500974 68.2092562 -224.4500974 68.2092562 -222.1171875 65.39746094 C-221.79105469 64.69234375 -221.46492187 63.98722656 -221.12890625 63.26074219 C-215.61378262 58.00680839 -209.29852788 53.56238736 -203.06640625 49.19824219 C-202.50655029 48.80419189 -201.94669434 48.4101416 -201.36987305 48.00415039 C-197.37538722 45.26074219 -197.37538722 45.26074219 -195.12890625 45.26074219 C-195.12890625 44.60074219 -195.12890625 43.94074219 -195.12890625 43.26074219 C-193.67353057 42.42225414 -192.21450252 41.59010284 -190.75390625 40.76074219 C-189.53574219 40.06464844 -189.53574219 40.06464844 -188.29296875 39.35449219 C-186.12890625 38.26074219 -186.12890625 38.26074219 -184.12890625 38.26074219 C-184.12890625 37.60074219 -184.12890625 36.94074219 -184.12890625 36.26074219 C-181.83908285 35.25632879 -179.54724635 34.25706607 -177.25390625 33.26074219 C-176.60292969 32.97457031 -175.95195313 32.68839844 -175.28125 32.39355469 C-170.35546875 30.26074219 -170.35546875 30.26074219 -168.12890625 30.26074219 C-168.12890625 29.60074219 -168.12890625 28.94074219 -168.12890625 28.26074219 C-167.07832031 27.87402344 -166.02773438 27.48730469 -164.9453125 27.08886719 C-156.00345203 23.81755725 -156.00345203 23.81755725 -147.25390625 20.07324219 C-143.51991286 18.35204905 -139.74250817 17.15952836 -135.78125 16.06933594 C-132.94736519 15.24731572 -132.94736519 15.24731572 -129.578125 13.83105469 C-124.20461594 11.78709303 -118.63258568 10.79289948 -113.00390625 9.69824219 C-105.41723186 8.27976508 -105.41723186 8.27976508 -98 6.20214844 C-68.40044 -3.50328552 -30.8442877 -0.07248661 0 0 Z M-37.12890625 400.26074219 C-40.26724993 407.14451898 -42.62406757 414.29509674 -45.06640625 421.44824219 C-45.50042017 422.71199337 -45.93466351 423.97566579 -46.36914062 425.23925781 C-48.34620698 431.00245123 -50.29916996 436.77120247 -52.1953125 442.56152344 C-53.37289699 446.11283314 -54.63062606 449.59484212 -56.046875 453.05761719 C-58.523156 459.12286932 -60.65910872 465.29959211 -62.75805664 471.50292969 C-63.21674099 472.85063246 -63.68134664 474.19633329 -64.15161133 475.54003906 C-64.84089652 477.51037902 -65.51211187 479.48608184 -66.1796875 481.46386719 C-66.57841064 482.62563477 -66.97713379 483.78740234 -67.38793945 484.984375 C-68.40696842 489.49026254 -67.89054713 492.69937837 -65.87890625 496.82324219 C-63.86941647 499.62217437 -61.59386953 501.85310364 -59.12890625 504.26074219 C-58.20572489 505.38040238 -57.28943982 506.50577255 -56.37890625 507.63574219 C-50.66874658 514.29281275 -43.62048477 518.71384673 -36.06640625 523.01074219 C-35.40592285 523.38763184 -34.74543945 523.76452148 -34.06494141 524.15283203 C-28.3509828 527.31907563 -22.77778148 530.26074219 -16.12890625 530.26074219 C-16.12890625 530.92074219 -16.12890625 531.58074219 -16.12890625 532.26074219 C-5.61199572 535.08862257 3.1092009 537.27014687 13.87109375 534.26074219 C14.69867187 534.06480469 15.52625 533.86886719 16.37890625 533.66699219 C18.21778315 533.2313001 20.0462854 532.75203674 21.87109375 532.26074219 C21.87109375 531.60074219 21.87109375 530.94074219 21.87109375 530.26074219 C22.67546875 530.17824219 23.47984375 530.09574219 24.30859375 530.01074219 C35.03494008 527.75256401 47.37243406 521.0977717 53.87109375 512.26074219 C56.16595783 509.90850651 58.46497542 507.61763405 60.93359375 505.44824219 C65.40390761 500.40111364 67.31801809 494.89765015 67.87109375 488.26074219 C68.53109375 488.26074219 69.19109375 488.26074219 69.87109375 488.26074219 C72.63286179 474.31495482 72.52176988 462.12305225 65.87109375 449.26074219 C63.43555576 445.69526649 60.79790642 442.43247642 57.87109375 439.26074219 C57.33742188 438.67550781 56.80375 438.09027344 56.25390625 437.48730469 C54.92979288 436.03955004 54.92979288 436.03955004 52.87109375 436.26074219 C52.54109375 435.27074219 52.21109375 434.28074219 51.87109375 433.26074219 C50.15570954 432.24421821 48.43598473 431.23004822 46.66015625 430.32324219 C44.87109375 429.26074219 44.87109375 429.26074219 43.51757812 427.82910156 C41.69111136 426.08929988 40.01427056 425.18187157 37.73828125 424.10449219 C36.93132812 423.72164062 36.124375 423.33878906 35.29296875 422.94433594 C34.4525 422.55375 33.61203125 422.16316406 32.74609375 421.76074219 C31.92882812 421.37015625 31.1115625 420.97957031 30.26953125 420.57714844 C20.94153738 415.99648071 20.94153738 415.99648071 10.87109375 414.26074219 C10.87109375 413.60074219 10.87109375 412.94074219 10.87109375 412.26074219 C9.9107019 412.00381592 9.9107019 412.00381592 8.9309082 411.74169922 C6.01428125 410.9595309 3.09893638 410.17268339 0.18359375 409.38574219 C-0.82380859 409.11632812 -1.83121094 408.84691406 -2.86914062 408.56933594 C-3.84560547 408.30507813 -4.82207031 408.04082031 -5.828125 407.76855469 C-6.72362061 407.52766113 -7.61911621 407.28676758 -8.54174805 407.03857422 C-11.12890625 406.26074219 -11.12890625 406.26074219 -13.64257812 405.23339844 C-16.17493295 404.24273645 -18.5396587 403.68207609 -21.2109375 403.19042969 C-22.14228516 403.01640625 -23.07363281 402.84238281 -24.03320312 402.66308594 C-25.47276367 402.40205078 -25.47276367 402.40205078 -26.94140625 402.13574219 C-27.92044922 401.95398438 -28.89949219 401.77222656 -29.90820312 401.58496094 C-32.31429494 401.13895367 -34.72115839 400.69770501 -37.12890625 400.26074219 Z " fill="#34A753" transform="translate(762.12890625,166.7392578125)"/>
<path d="M0 0 C1.86323318 0.25288812 3.71708432 0.57690153 5.5625 0.9375 C6.57441406 1.13214844 7.58632813 1.32679688 8.62890625 1.52734375 C9.80259766 1.76130859 9.80259766 1.76130859 11 2 C11 2.66 11 3.32 11 4 C12.27230469 4.11988281 13.54460937 4.23976563 14.85546875 4.36328125 C20.09918298 4.94886851 25.17099452 6.02273414 30.3125 7.1875 C32.326703 7.63465507 34.34103212 8.08124233 36.35546875 8.52734375 C37.95334229 8.8828833 37.95334229 8.8828833 39.58349609 9.24560547 C45.75784349 10.60895644 51.94175793 11.92768863 58.125 13.25 C59.32809814 13.5080542 60.53119629 13.7661084 61.77075195 14.03198242 C66.50913198 15.04708415 71.24617001 16.05944328 76 17 C76 17.66 76 18.32 76 19 C77.258125 19.0825 78.51625 19.165 79.8125 19.25 C88.3233976 20.07522451 96.66310595 22.15972051 105 24 C105 24.66 105 25.32 105 26 C106.94712891 26.17402344 106.94712891 26.17402344 108.93359375 26.3515625 C113.80659467 26.89501985 118.36159686 28.01218425 123.0625 29.375 C123.81337891 29.58382813 124.56425781 29.79265625 125.33789062 30.0078125 C129.6849958 31.24018112 133.90694999 32.66268214 138.12280273 34.28613281 C140.88759668 35.33753839 143.69102475 36.26181497 146.5 37.1875 C147.5415625 37.53167969 148.583125 37.87585938 149.65625 38.23046875 C150.81640625 38.61138672 150.81640625 38.61138672 152 39 C152 39.66 152 40.32 152 41 C152.78375 41.0825 153.5675 41.165 154.375 41.25 C161.32886297 42.68873027 167.68721193 45.74525032 173.97265625 48.984375 C177.5852009 50.79412762 181.29594083 52.38804832 185 54 C185 54.66 185 55.32 185 56 C186.051875 56.268125 187.10375 56.53625 188.1875 56.8125 C191.59072912 57.87252219 194.13158918 58.91388304 197 61 C197 61.66 197 62.32 197 63 C197.70125 63.268125 198.4025 63.53625 199.125 63.8125 C204.37158188 65.97956643 208.62145852 68.38770328 213 72 C214.6396875 73.051875 214.6396875 73.051875 216.3125 74.125 C217.199375 74.74375 218.08625 75.3625 219 76 C219 76.66 219 77.32 219 78 C219.72316406 78.23074219 220.44632813 78.46148437 221.19140625 78.69921875 C224.53572269 80.24811635 226.40573858 82.1447514 228.9375 84.8125 C232.88469565 88.91452122 232.88469565 88.91452122 237.1875 92.625 C241.98645626 96.67745195 246.56837657 100.76028279 248 107 C248.8971875 107.4021875 248.8971875 107.4021875 249.8125 107.8125 C252.61641602 109.33462584 253.49132975 111.34403441 254.875 114.1484375 C255.97683773 116.13364961 255.97683773 116.13364961 257.9375 117.8984375 C260.19584824 120.19955749 261.50257352 122.40163441 263 125.25 C263.51433594 126.22582031 264.02867187 127.20164062 264.55859375 128.20703125 C265.03425781 129.12871094 265.50992188 130.05039062 266 131 C266.36222656 131.68449219 266.72445312 132.36898437 267.09765625 133.07421875 C271.75014592 142.05898625 275.27917691 151.38423729 278.10546875 161.08984375 C278.93224808 163.95141087 278.93224808 163.95141087 280.01953125 166.42578125 C292.2280121 198.47912341 286.49088024 240.37080798 280 273 C279.34 273 278.68 273 278 273 C277.88140625 274.00417969 277.7628125 275.00835938 277.640625 276.04296875 C276.30117662 285.3605651 272.55513198 294.60447808 268.11328125 302.8515625 C266.90621446 305.18098963 265.94044141 307.55227578 265 310 C264.34 310 263.68 310 263 310 C262.65775391 311.24330078 262.65775391 311.24330078 262.30859375 312.51171875 C260.73266169 316.71263615 258.56453082 320.11180506 256.0625 323.8125 C255.61970703 324.49248047 255.17691406 325.17246094 254.72070312 325.87304688 C251.3742682 330.87524393 251.3742682 330.87524393 248 332 C247.32830115 333.66464497 246.6626135 335.33171778 246 337 C241.17625088 343.07899982 235.67509071 348.52670239 229.73828125 353.51171875 C227.79087722 355.13437423 227.79087722 355.13437423 225.375 357.6875 C222.77674156 360.21738321 220.04209242 362.03531531 217 364 C216.23429688 364.61746094 215.46859375 365.23492188 214.6796875 365.87109375 C206.21989913 372.59206264 189.33830725 386 178 386 C178 386.66 178 387.32 178 388 C176.96101563 388.38671875 175.92203125 388.7734375 174.8515625 389.171875 C173.44260944 389.69765174 172.03376251 390.22371292 170.625 390.75 C169.89200684 391.02368408 169.15901367 391.29736816 168.40380859 391.5793457 C164.45302308 393.06034627 160.52671723 394.58054274 156.625 396.1875 C150.21817538 398.76967721 143.98341437 401.24720051 137 401 C137 401.66 137 402.32 137 403 C127.016828 405.38486887 117.30109617 407.59603544 107 408 C107 408.66 107 409.32 107 410 C103.08590667 410.55119035 99.1694751 411.08201055 95.25073242 411.59912109 C93.31630903 411.85777669 91.38365832 412.12959344 89.45117188 412.40234375 C59.71139565 416.40826959 29.54885817 416.32901781 -0.39672852 416.26074219 C-5.42575321 416.24935648 -10.45456597 416.25613514 -15.48358345 416.26761436 C-46.28451611 416.32734572 -77.18025608 416.05627196 -107.75 411.875 C-109.1756273 411.69021463 -110.60141097 411.50663187 -112.02734375 411.32421875 C-115.35343703 410.8962908 -118.67727722 410.45345859 -122 410 C-122 409.34 -122 408.68 -122 408 C-122.71285156 407.95101563 -123.42570313 407.90203125 -124.16015625 407.8515625 C-131.13985741 407.30671369 -137.13463554 406.11700648 -143.6875 403.5625 C-147.03604424 402.26712505 -150.38094393 401.38568351 -153.875 400.5625 C-158.59678562 399.42785314 -162.9075432 397.92270641 -167.37109375 396.03125 C-170.37231698 394.85394995 -173.40411479 393.96048776 -176.5 393.0625 C-181.36990483 391.5941585 -185.74506092 389.84884888 -190.23046875 387.46484375 C-192.3440483 386.34694201 -194.45839756 385.28639652 -196.61328125 384.25390625 C-228.20040443 369.04920407 -259.7159418 345.21340468 -277 314 C-277 313.34 -277 312.68 -277 312 C-277.66 312 -278.32 312 -279 312 C-280.82647872 308.63238779 -282.63361865 305.25476284 -284.4375 301.875 C-284.95376953 300.92367188 -285.47003906 299.97234375 -286.00195312 298.9921875 C-286.49501953 298.0640625 -286.98808594 297.1359375 -287.49609375 296.1796875 C-287.95169678 295.33132324 -288.4072998 294.48295898 -288.87670898 293.60888672 C-290.11285691 290.73788548 -290.60327624 288.09089257 -291 285 C-291.99 284.67 -292.98 284.34 -294 284 C-294.89135742 282.11401367 -294.89135742 282.11401367 -295.60546875 279.66796875 C-295.86650391 278.78689453 -296.12753906 277.90582031 -296.39648438 276.99804688 C-296.78803711 275.60682617 -296.78803711 275.60682617 -297.1875 274.1875 C-297.46013672 273.27162109 -297.73277344 272.35574219 -298.01367188 271.41210938 C-299.1826373 267.38957922 -300 264.23071105 -300 260 C-300.66 260 -301.32 260 -302 260 C-307.45349435 235.75012847 -307.45349435 235.75012847 -307 226 C-307.66 226 -308.32 226 -309 226 C-309.34554895 222.64698047 -309.67397537 219.29246964 -310 215.9375 C-310.09539062 215.01388672 -310.19078125 214.09027344 -310.2890625 213.13867188 C-310.83316336 207.44504503 -311.04935387 201.82892172 -311.02734375 196.10766602 C-311.02536987 195.42055794 -311.023396 194.73344986 -311.0213623 194.02552032 C-311.01626296 192.35033951 -311.00841856 190.67516742 -311 189 C-287.11908114 188.97650706 -263.23816405 188.95894108 -239.35723591 188.94818783 C-228.2657412 188.94305938 -217.17425373 188.93608352 -206.08276367 188.92456055 C-196.40108538 188.91450714 -186.71941233 188.90812157 -177.03772897 188.90591151 C-171.92441577 188.90462225 -166.81111755 188.90165232 -161.69780922 188.89426994 C-139.44160915 188.86334113 -117.23698894 188.98028246 -95 190 C-94.15765381 196.90811157 -94.15765381 196.90811157 -93.86376953 199.42260742 C-93.37321331 203.26253215 -92.51471106 206.45790644 -91 210 C-90.51523808 211.93105711 -90.05798145 213.86917739 -89.625 215.8125 C-88.52656704 220.37435935 -87.09557089 224.20599827 -84.8515625 228.30859375 C-83.75893255 230.47881745 -83.30020705 232.59834356 -83 235 C-82.01 235 -81.02 235 -80 235 C-76 241.75 -76 241.75 -76 244 C-75.01 244.33 -74.02 244.66 -73 245 C-72.09113148 246.41379547 -71.18467598 247.82922459 -70.29296875 249.25390625 C-67.7353789 252.70781157 -64.28857595 255.27022504 -61 258 C-60.05125 258.86625 -59.1025 259.7325 -58.125 260.625 C-54.02230599 263.74304745 -49.63997484 265.79907881 -45 268 C-43.64486557 268.7064801 -42.29062422 269.41467731 -40.9375 270.125 C-36.777041 272.21799164 -32.446335 273.64139764 -28 275 C-28 275.66 -28 276.32 -28 277 C-26.19804079 277.2119952 -24.39601059 277.4233949 -22.59375 277.6328125 C-20.72936304 277.8967468 -18.87480829 278.23392143 -17.03125 278.6171875 C-9.60874049 280.07646728 -4.06173837 279.79752759 3.22265625 277.7265625 C6 277 6 277 10 277 C10 276.34 10 275.68 10 275 C10.89460938 274.72027344 11.78921875 274.44054687 12.7109375 274.15234375 C19.9721218 271.74485087 25.8207981 269.23623357 31.9140625 264.453125 C34.01139929 262.99205892 35.54701161 262.55822931 38 262 C38.70394612 260.68596724 39.36345658 259.3479743 40 258 C41.64488294 256.31183067 43.31337542 254.64646685 45 253 C46.0828125 251.6078125 46.0828125 251.6078125 47.1875 250.1875 C47.785625 249.465625 48.38375 248.74375 49 248 C49.66 248 50.32 248 51 248 C51.12246094 247.45859375 51.24492188 246.9171875 51.37109375 246.359375 C52.11004882 243.58714603 53.06926154 240.94135583 54.0625 238.25 C54.42472656 237.26515625 54.78695313 236.2803125 55.16015625 235.265625 C55.43730469 234.51796875 55.71445312 233.7703125 56 233 C56.66 233 57.32 233 58 233 C59.35641058 216.50311457 59.58487968 202.33622042 49.07421875 188.45703125 C44.16198301 182.76265312 38.87828834 177.21485216 32 174 C32 173.34 32 172.68 32 172 C31.15695312 171.73960937 30.31390625 171.47921875 29.4453125 171.2109375 C25.78553334 169.92462056 22.35479895 168.32154386 18.875 166.625 C12.40640648 163.52894172 5.87748612 161.06196511 -1 159 C-1 158.34 -1 157.68 -1 157 C-1.99773437 156.87496094 -2.99546875 156.74992188 -4.0234375 156.62109375 C-7.97497289 156.05531025 -11.769713 155.10287786 -15.625 154.0625 C-16.89601563 153.72347656 -18.16703125 153.38445312 -19.4765625 153.03515625 C-23 152 -23 152 -25.35546875 151 C-29.35731307 149.4867472 -33.49834964 148.76775361 -37.6875 147.9375 C-39.40024222 147.59495156 -41.11250887 147.25001401 -42.82421875 146.90234375 C-43.57791748 146.75273193 -44.33161621 146.60312012 -45.1081543 146.44897461 C-47 146 -47 146 -49 145 C-47.57391262 133.63451573 -43.71687861 122.79476446 -40 112 C-39.34 112 -38.68 112 -38 112 C-37.83564453 110.82244141 -37.83564453 110.82244141 -37.66796875 109.62109375 C-36.75715388 103.5860196 -35.54359431 98.57634138 -33 93 C-31.59177302 88.68889359 -30.28815373 84.34833621 -29 80 C-28.34 80 -27.68 80 -27 80 C-26.87882812 79.16855469 -26.75765625 78.33710938 -26.6328125 77.48046875 C-26.46523438 76.39378906 -26.29765625 75.30710937 -26.125 74.1875 C-25.88136719 72.56908203 -25.88136719 72.56908203 -25.6328125 70.91796875 C-25 68 -25 68 -23 65 C-22.47519252 63.02650739 -22.47519252 63.02650739 -22.125 60.875 C-21.44323891 57.54671752 -20.51465656 54.69495836 -19.0625 51.625 C-17.06513683 47.38615149 -15.87503488 43.13382507 -14.70703125 38.60546875 C-13.94264582 35.78864509 -12.95766821 33.09311148 -11.88671875 30.37890625 C-10.38997327 26.36340846 -9.1019758 22.27322987 -7.80126953 18.19042969 C-6.79692065 15.10513345 -5.81471723 12.72207584 -4 10 C-3.43980518 8.47219594 -2.92085583 6.92882451 -2.4375 5.375 C-1.10352941 1.10352941 -1.10352941 1.10352941 0 0 Z " fill="#E94335" transform="translate(774,422)"/>
<path d="M0 0 C4.89022421 0.01139343 9.78023056 0.00461336 14.67044735 -0.00688553 C110.06805076 -0.19673281 110.06805076 -0.19673281 149.87109375 17.26074219 C151.84613331 17.91908871 153.82576622 18.56373738 155.80859375 19.19824219 C160.09322447 20.59621634 164.00744032 22.19980875 167.98046875 24.31152344 C171.17327764 25.9145246 174.50942884 27.06014758 177.87109375 28.26074219 C177.87109375 28.92074219 177.87109375 29.58074219 177.87109375 30.26074219 C178.5878125 30.37546875 179.30453125 30.49019531 180.04296875 30.60839844 C183.01990926 31.29506842 185.39762268 32.3242755 188.12109375 33.69824219 C188.9925 34.13007813 189.86390625 34.56191406 190.76171875 35.00683594 C192.87109375 36.26074219 192.87109375 36.26074219 193.87109375 38.26074219 C195.52670475 39.1946766 197.22059897 40.06177002 198.93359375 40.88574219 C199.85269531 41.33175781 200.77179688 41.77777344 201.71875 42.23730469 C202.42902344 42.57503906 203.13929688 42.91277344 203.87109375 43.26074219 C203.87109375 43.92074219 203.87109375 44.58074219 203.87109375 45.26074219 C204.59296875 45.52886719 205.31484375 45.79699219 206.05859375 46.07324219 C210.37671654 47.89644959 213.23957838 49.31346913 215.87109375 53.26074219 C216.69609375 53.73511719 217.52109375 54.20949219 218.37109375 54.69824219 C220.87109375 56.26074219 220.87109375 56.26074219 221.87109375 58.32324219 C223.27895695 61.05097713 225.05576142 61.23074255 227.87109375 62.26074219 C229.68359375 63.76074219 229.68359375 63.76074219 230.87109375 65.26074219 C230.87109375 65.92074219 230.87109375 66.58074219 230.87109375 67.26074219 C231.44730469 67.51210937 232.02351563 67.76347656 232.6171875 68.02246094 C238.37910202 71.18801883 242.67476527 76.62911581 245.87109375 82.26074219 C246.71671875 83.10636719 247.56234375 83.95199219 248.43359375 84.82324219 C250.65117999 87.04082842 251.54528954 88.52074683 252.87109375 91.26074219 C253.46664063 91.83308594 254.0621875 92.40542969 254.67578125 92.99511719 C261.10392006 99.62913945 265.47372645 108.42045026 267.87109375 117.26074219 C268.53109375 117.26074219 269.19109375 117.26074219 269.87109375 117.26074219 C270.71271229 119.3407423 271.54410138 121.42488365 272.37109375 123.51074219 C272.83515625 124.67089844 273.29921875 125.83105469 273.77734375 127.02636719 C274.87109375 130.26074219 274.87109375 130.26074219 274.87109375 134.26074219 C275.53109375 134.26074219 276.19109375 134.26074219 276.87109375 134.26074219 C279.31517899 141.61573359 281.34567928 148.51087868 281.87109375 156.26074219 C282.53109375 156.26074219 283.19109375 156.26074219 283.87109375 156.26074219 C286.87092412 173.17569954 288.87109375 189.03426549 288.87109375 206.26074219 C217.26109375 206.26074219 145.65109375 206.26074219 71.87109375 206.26074219 C69.62109375 196.13574219 69.62109375 196.13574219 69.87109375 191.26074219 C69.21109375 191.26074219 68.55109375 191.26074219 67.87109375 191.26074219 C67.59136719 190.30554688 67.31164062 189.35035156 67.0234375 188.36621094 C63.56807113 177.03472838 58.80521514 168.50449894 50.80859375 159.63574219 C46.91978831 155.0362921 46.91978831 155.0362921 46.7109375 151.70996094 C47.22724718 149.40729515 47.93763367 147.42311531 48.87109375 145.26074219 C49.22550366 143.93285571 49.56533873 142.60066859 49.87109375 141.26074219 C50.53109375 141.26074219 51.19109375 141.26074219 51.87109375 141.26074219 C51.98066406 140.55949219 52.09023438 139.85824219 52.203125 139.13574219 C53.05007835 134.06779367 54.02541522 129.37417856 55.9609375 124.58886719 C58.72165532 117.52711687 60.96622964 110.22517958 63.19921875 102.97949219 C63.41658691 102.274375 63.63395508 101.56925781 63.85791016 100.84277344 C64.27023899 99.49757824 64.6790211 98.15128846 65.08349609 96.80371094 C66.40487457 92.48042013 68.07909362 88.40684437 69.87109375 84.26074219 C70.46680943 82.45888611 71.03393507 80.64705571 71.55859375 78.82324219 C71.80996094 77.95828125 72.06132813 77.09332031 72.3203125 76.20214844 C72.59294922 75.24115234 72.59294922 75.24115234 72.87109375 74.26074219 C73.53109375 74.26074219 74.19109375 74.26074219 74.87109375 74.26074219 C74.94585938 73.66390625 75.020625 73.06707031 75.09765625 72.45214844 C76.27570133 64.67936078 78.73032281 57.64103313 81.41796875 50.29589844 C82.58371675 47.10492283 83.62098336 43.90241667 84.55859375 40.63574219 C85.69807648 36.68730204 87.24298518 33.03795406 88.87109375 29.26074219 C90.19109375 25.30074219 91.51109375 21.34074219 92.87109375 17.26074219 C27.53109375 17.59074219 -37.80890625 17.92074219 -105.12890625 18.26074219 C-106.11890625 21.23074219 -107.10890625 24.20074219 -108.12890625 27.26074219 C-108.92669041 29.32897886 -109.7379703 31.39209132 -110.56640625 33.44824219 C-112.80091328 39.18169286 -114.52369561 44.96089828 -116.15625 50.88964844 C-117.82199953 56.66290884 -119.91995215 62.26562657 -122.16796875 67.83496094 C-123.27646861 70.63324718 -124.20493483 73.47901416 -125.140625 76.33886719 C-125.93017667 78.67319387 -126.7472964 80.99081108 -127.5859375 83.30761719 C-130.91376101 92.27210381 -130.91376101 92.27210381 -133.31640625 101.51074219 C-134.10347521 105.14336815 -135.1768559 107.16999581 -137.12890625 110.26074219 C-137.81715179 112.58780191 -138.48078614 114.92218939 -139.12890625 117.26074219 C-139.86512381 119.53608123 -140.61578879 121.80678333 -141.37890625 124.07324219 C-141.81771804 125.38183268 -142.25651965 126.69042659 -142.6953125 127.99902344 C-143.17307166 129.41963181 -143.65094112 130.8402031 -144.12890625 132.26074219 C-145.19350331 135.42670942 -146.25554288 138.59352216 -147.31640625 141.76074219 C-147.56616211 142.50171143 -147.81591797 143.24268066 -148.07324219 144.00610352 C-149.16613032 147.26965038 -150.20174883 150.52008444 -151.1328125 153.83496094 C-152.19699622 157.49491828 -153.50219707 161.02346994 -154.87890625 164.57324219 C-157.45351558 171.3131074 -159.80048694 178.10962611 -162.03613281 184.96899414 C-163.41376547 189.1823343 -164.89542104 193.33555999 -166.47045898 197.47900391 C-167.27316138 199.65109217 -167.93809398 201.84488004 -168.56640625 204.07324219 C-169.56555113 207.48784558 -170.68149809 210.80895989 -171.94140625 214.13574219 C-174.28471441 220.40859787 -176.11581501 226.82719548 -177.93481445 233.26806641 C-178.17546631 234.09838379 -178.41611816 234.92870117 -178.6640625 235.78417969 C-178.97935913 236.89672119 -178.97935913 236.89672119 -179.30102539 238.03173828 C-180.12890625 240.26074219 -180.12890625 240.26074219 -181.6015625 242.6628418 C-183.27589744 245.51076348 -184.13456408 248.12758993 -185.03125 251.30371094 C-185.36447266 252.46064453 -185.69769531 253.61757813 -186.04101562 254.80957031 C-186.54858398 256.61071289 -186.54858398 256.61071289 -187.06640625 258.44824219 C-189.15190394 265.81378604 -191.26206956 273.04219012 -194.24414062 280.10107422 C-195.16791618 282.35596345 -195.94414243 284.62943967 -196.69140625 286.94824219 C-197.58345879 289.71214267 -198.56859061 292.35952895 -199.75390625 295.01074219 C-200.94301107 297.82135357 -201.67414337 300.2593072 -202.12890625 303.26074219 C-202.78890625 302.93074219 -203.44890625 302.60074219 -204.12890625 302.26074219 C-204.65966797 299.70698547 -204.65966797 299.70698547 -205.05859375 296.25415039 C-205.21215332 294.96382401 -205.36571289 293.67349762 -205.52392578 292.34407043 C-205.68418547 290.91658463 -205.8441713 289.48906806 -206.00390625 288.06152344 C-206.17488863 286.59099467 -206.34661299 285.12055199 -206.51904297 283.65019226 C-206.88095784 280.54776898 -207.23679247 277.44473021 -207.58789062 274.34106445 C-208.03032522 270.43039423 -208.48274812 266.52097503 -208.93925476 262.61192513 C-210.65133364 247.94134129 -212.3453462 233.27328601 -213.53369141 218.54890442 C-213.80422053 215.28105985 -214.0875303 212.38487005 -215.12890625 209.26074219 C-215.29581716 207.92615254 -215.42295217 206.58634479 -215.5234375 205.24511719 C-215.58974365 204.42261475 -215.6560498 203.6001123 -215.72436523 202.75268555 C-215.79598877 201.84784424 -215.8676123 200.94300293 -215.94140625 200.01074219 C-216.72892504 190.70178613 -217.8326273 181.45794999 -219.06640625 172.19824219 C-220.89415871 158.44548333 -222.38757262 144.6728077 -223.765625 130.86767578 C-224.38633641 124.70477907 -225.03594381 118.54502794 -225.69140625 112.38574219 C-225.81563965 111.21100342 -225.93987305 110.03626465 -226.06787109 108.82592773 C-226.71160973 102.82557889 -227.4405539 96.85634131 -228.31640625 90.88574219 C-230.21783242 76.94195024 -230.21783242 76.94195024 -229.12890625 70.26074219 C-227.07701762 68.21729755 -226.05273211 67.26074219 -223.12890625 67.26074219 C-222.89816406 66.68710938 -222.66742187 66.11347656 -222.4296875 65.52246094 C-218.47077013 58.63893794 -209.53632044 53.7289055 -203.06640625 49.19824219 C-202.50655029 48.80419189 -201.94669434 48.4101416 -201.36987305 48.00415039 C-197.37538722 45.26074219 -197.37538722 45.26074219 -195.12890625 45.26074219 C-195.12890625 44.60074219 -195.12890625 43.94074219 -195.12890625 43.26074219 C-193.67353057 42.42225414 -192.21450252 41.59010284 -190.75390625 40.76074219 C-189.94179688 40.29667969 -189.1296875 39.83261719 -188.29296875 39.35449219 C-186.12890625 38.26074219 -186.12890625 38.26074219 -184.12890625 38.26074219 C-184.12890625 37.60074219 -184.12890625 36.94074219 -184.12890625 36.26074219 C-181.83908285 35.25632879 -179.54724635 34.25706607 -177.25390625 33.26074219 C-176.60292969 32.97457031 -175.95195313 32.68839844 -175.28125 32.39355469 C-170.35546875 30.26074219 -170.35546875 30.26074219 -168.12890625 30.26074219 C-168.12890625 29.60074219 -168.12890625 28.94074219 -168.12890625 28.26074219 C-167.07832031 27.87402344 -166.02773438 27.48730469 -164.9453125 27.08886719 C-156.00345203 23.81755725 -156.00345203 23.81755725 -147.25390625 20.07324219 C-143.51991286 18.35204905 -139.74250817 17.15952836 -135.78125 16.06933594 C-132.94736519 15.24731572 -132.94736519 15.24731572 -129.578125 13.83105469 C-124.20461594 11.78709303 -118.63258568 10.79289948 -113.00390625 9.69824219 C-105.41723186 8.27976508 -105.41723186 8.27976508 -98 6.20214844 C-68.40044 -3.50328552 -30.8442877 -0.07248661 0 0 Z " fill="#E94335" transform="translate(762.12890625,166.7392578125)"/>
<path d="M0 0 C1.86323318 0.25288812 3.71708432 0.57690153 5.5625 0.9375 C6.57441406 1.13214844 7.58632813 1.32679688 8.62890625 1.52734375 C9.80259766 1.76130859 9.80259766 1.76130859 11 2 C11 2.66 11 3.32 11 4 C12.90845703 4.17982422 12.90845703 4.17982422 14.85546875 4.36328125 C20.09918298 4.94886851 25.17099452 6.02273414 30.3125 7.1875 C32.326703 7.63465507 34.34103212 8.08124233 36.35546875 8.52734375 C37.95334229 8.8828833 37.95334229 8.8828833 39.58349609 9.24560547 C45.75784349 10.60895644 51.94175793 11.92768863 58.125 13.25 C59.32809814 13.5080542 60.53119629 13.7661084 61.77075195 14.03198242 C66.50913198 15.04708415 71.24617001 16.05944328 76 17 C76 17.66 76 18.32 76 19 C77.258125 19.0825 78.51625 19.165 79.8125 19.25 C88.3233976 20.07522451 96.66310595 22.15972051 105 24 C105 24.66 105 25.32 105 26 C106.29808594 26.11601562 107.59617187 26.23203125 108.93359375 26.3515625 C113.80659467 26.89501985 118.36159686 28.01218425 123.0625 29.375 C124.18881836 29.68824219 124.18881836 29.68824219 125.33789062 30.0078125 C129.6849958 31.24018112 133.90694999 32.66268214 138.12280273 34.28613281 C140.88759668 35.33753839 143.69102475 36.26181497 146.5 37.1875 C147.5415625 37.53167969 148.583125 37.87585938 149.65625 38.23046875 C150.81640625 38.61138672 150.81640625 38.61138672 152 39 C152 39.66 152 40.32 152 41 C152.78375 41.0825 153.5675 41.165 154.375 41.25 C161.32886297 42.68873027 167.68721193 45.74525032 173.97265625 48.984375 C177.5852009 50.79412762 181.29594083 52.38804832 185 54 C185 54.66 185 55.32 185 56 C186.051875 56.268125 187.10375 56.53625 188.1875 56.8125 C191.59072912 57.87252219 194.13158918 58.91388304 197 61 C197 61.66 197 62.32 197 63 C197.70125 63.268125 198.4025 63.53625 199.125 63.8125 C204.37158188 65.97956643 208.62145852 68.38770328 213 72 C214.093125 72.70125 215.18625 73.4025 216.3125 74.125 C217.199375 74.74375 218.08625 75.3625 219 76 C219 76.66 219 77.32 219 78 C219.72316406 78.23074219 220.44632813 78.46148437 221.19140625 78.69921875 C224.53572269 80.24811635 226.40573858 82.1447514 228.9375 84.8125 C232.88469565 88.91452122 232.88469565 88.91452122 237.1875 92.625 C241.98645626 96.67745195 246.56837657 100.76028279 248 107 C248.598125 107.268125 249.19625 107.53625 249.8125 107.8125 C252.61641602 109.33462584 253.49132975 111.34403441 254.875 114.1484375 C255.97683773 116.13364961 255.97683773 116.13364961 257.9375 117.8984375 C260.19584824 120.19955749 261.50257352 122.40163441 263 125.25 C263.51433594 126.22582031 264.02867187 127.20164062 264.55859375 128.20703125 C265.03425781 129.12871094 265.50992187 130.05039062 266 131 C266.36222656 131.68449219 266.72445313 132.36898437 267.09765625 133.07421875 C271.75014592 142.05898625 275.27917691 151.38423729 278.10546875 161.08984375 C278.93224808 163.95141087 278.93224808 163.95141087 280.01953125 166.42578125 C292.2280121 198.47912341 286.49088024 240.37080798 280 273 C279.34 273 278.68 273 278 273 C277.88140625 274.00417969 277.7628125 275.00835938 277.640625 276.04296875 C276.30117662 285.3605651 272.55513198 294.60447808 268.11328125 302.8515625 C266.90621446 305.18098963 265.94044141 307.55227578 265 310 C264.34 310 263.68 310 263 310 C262.65775391 311.24330078 262.65775391 311.24330078 262.30859375 312.51171875 C260.73266169 316.71263615 258.56453082 320.11180506 256.0625 323.8125 C255.61970703 324.49248047 255.17691406 325.17246094 254.72070312 325.87304688 C251.3742682 330.87524393 251.3742682 330.87524393 248 332 C247.32830115 333.66464497 246.6626135 335.33171778 246 337 C241.17625088 343.07899982 235.67509071 348.52670239 229.73828125 353.51171875 C227.79087722 355.13437423 227.79087722 355.13437423 225.375 357.6875 C222.77674156 360.21738321 220.04209242 362.03531531 217 364 C216.23429688 364.61746094 215.46859375 365.23492188 214.6796875 365.87109375 C206.21989913 372.59206264 189.33830725 386 178 386 C178 386.66 178 387.32 178 388 C176.96101562 388.38671875 175.92203125 388.7734375 174.8515625 389.171875 C173.44260944 389.69765174 172.03376251 390.22371292 170.625 390.75 C169.89200684 391.02368408 169.15901367 391.29736816 168.40380859 391.5793457 C164.45302308 393.06034627 160.52671723 394.58054274 156.625 396.1875 C150.21817538 398.76967721 143.98341437 401.24720051 137 401 C137 401.66 137 402.32 137 403 C127.016828 405.38486887 117.30109617 407.59603544 107 408 C107 408.66 107 409.32 107 410 C70.58939655 415.12741305 33.73907525 417.99917862 -3 415 C-3 414.67 -3 414.34 -3 414 C6.96779882 412.39376042 16.93972209 410.84636417 26.9375 409.4375 C42.0096387 407.34614481 42.0096387 407.34614481 56.80078125 403.8515625 C59.35773668 403.17095654 61.89441604 402.57439557 64.48046875 402.0234375 C65.67422119 401.76892822 65.67422119 401.76892822 66.89208984 401.50927734 C68.47040685 401.17718442 70.05012606 400.85166711 71.63134766 400.53369141 C76.18719624 399.57189008 79.84917659 398.1787633 84 396 C86.36183343 395.16987714 88.73811784 394.38008586 91.125 393.625 C103.03701088 389.84100129 103.03701088 389.84100129 114 384 C115.32 384 116.64 384 118 384 C118 383.34 118 382.68 118 382 C118.83144531 381.67386719 119.66289063 381.34773438 120.51953125 381.01171875 C121.60621094 380.57472656 122.69289063 380.13773438 123.8125 379.6875 C125.43091797 379.04361328 125.43091797 379.04361328 127.08203125 378.38671875 C129.78135063 377.10390968 131.02133952 376.12872742 133 374 C134.45658633 373.08790609 135.93902607 372.21650753 137.4375 371.375 C146.2454477 366.17958737 154.16854633 359.79266325 162 353.25 C162.53987549 352.80245361 163.07975098 352.35490723 163.63598633 351.89379883 C166.84588559 349.17182446 169.41883605 346.30971829 172 343 C173.66141736 341.32810051 175.32816541 339.66148267 177 338 C183.08059988 331.10292381 188.25807961 323.86547654 193 316 C193.57105469 315.07316406 194.14210938 314.14632813 194.73046875 313.19140625 C197.76981679 308.28942106 197.76981679 308.28942106 200 303 C200.66 303 201.32 303 202 303 C202.18175781 302.33613281 202.36351562 301.67226563 202.55078125 300.98828125 C202.80214844 300.10527344 203.05351563 299.22226562 203.3125 298.3125 C203.55613281 297.44238281 203.79976562 296.57226562 204.05078125 295.67578125 C205 293 205 293 206.48046875 290.53515625 C211.23377256 282.60483704 212.58499202 272.61348489 214.27734375 263.65234375 C215.13594079 259.31294788 216.20980442 255.05363506 217.3515625 250.78125 C218.77725371 244.6662371 219.16714143 238.69138182 219.203125 232.4453125 C219.20995804 231.6342807 219.21679108 230.8232489 219.22383118 229.98764038 C219.24087531 227.36671776 219.24716099 224.74597484 219.25 222.125 C219.25200409 221.23304932 219.25400818 220.34109863 219.256073 219.42211914 C219.26370709 205.55112961 218.51898247 192.08368471 216.36376953 178.359375 C215.83267834 174.91476744 215.41635123 171.46016165 215 168 C214.34 168 213.68 168 213 168 C212.67 165.03 212.34 162.06 212 159 C211.34 159 210.68 159 210 159 C208.82569926 155.7318568 207.66188744 152.46007485 206.5 149.1875 C206.16613281 148.25873047 205.83226562 147.32996094 205.48828125 146.37304688 C205.01455078 145.0340332 205.01455078 145.0340332 204.53125 143.66796875 C204.23798828 142.84578857 203.94472656 142.0236084 203.64257812 141.17651367 C203 139 203 139 203 136 C202.34 136 201.68 136 201 136 C200.16180842 134.37750059 199.3295884 132.75191503 198.5 131.125 C198.0359375 130.22007812 197.571875 129.31515625 197.09375 128.3828125 C196 126 196 126 196 124 C195.34 124 194.68 124 194 124 C192.83349008 122.18440845 191.74474877 120.31881419 190.6875 118.4375 C180.79030523 101.66602511 164.21408395 84.12518563 147.21875 74.41015625 C146.4865625 73.94480469 145.754375 73.47945313 145 73 C145 72.34 145 71.68 145 71 C144.29488281 70.74476563 143.58976563 70.48953125 142.86328125 70.2265625 C139.72697817 68.88304385 137.05525344 67.22302596 134.1875 65.375 C127.32895846 61.04800135 120.17848977 57.46108911 112.88964844 53.92285156 C109.21966571 52.13053442 105.58458411 50.26789657 101.94140625 48.421875 C94.58896807 44.86770834 87.16444982 41.89178915 79.4375 39.25 C78.06754883 38.77626953 78.06754883 38.77626953 76.66992188 38.29296875 C74.44780336 37.52511628 72.22452041 36.76085976 70 36 C70 35.34 70 34.68 70 34 C68.69675781 33.89300781 67.39351562 33.78601563 66.05078125 33.67578125 C61.15679636 33.13030685 56.82012353 31.80063684 52.1875 30.1875 C44.52128346 27.62979784 36.89439551 25.78852776 28.93823242 24.3815918 C24.2060644 23.52749318 19.8142233 22.32790583 15.27636719 20.74243164 C11.39655959 19.4770418 7.42639022 18.65624056 3.4375 17.8125 C2.21063477 17.54663086 2.21063477 17.54663086 0.95898438 17.27539062 C-1.02638551 16.84580767 -3.01305803 16.42225196 -5 16 C-4.43766377 12.26370831 -3.71861762 8.7641427 -2.5 5.1875 C-2.2421875 4.41792969 -1.984375 3.64835937 -1.71875 2.85546875 C-1 1 -1 1 0 0 Z " fill="#FABB04" transform="translate(774,422)"/>
<path d="M0 0 C16.83 0 33.66 0 51 0 C48.74430823 10.15061296 48.74430823 10.15061296 47.5625 13.5625 C47.3046875 14.31015625 47.046875 15.0578125 46.78125 15.828125 C46.06083959 17.83086593 45.31880719 19.82308327 44.5625 21.8125 C40.97540529 31.27276533 38.04668355 40.96933298 35.05078125 50.62890625 C34.38687359 52.75884049 33.70550643 54.8834807 33 57 C32.34 57 31.68 57 31 57 C30.91363281 57.55945313 30.82726562 58.11890625 30.73828125 58.6953125 C29.37616735 66.46810926 26.76634229 73.62865891 24 81 C21.41226199 87.94454782 19.0773216 94.90738853 16.9375 102.00390625 C16.18048126 104.42321196 15.36315716 106.76746691 14.4375 109.125 C12.54875668 113.96101312 11.30103343 118.98041002 10 124 C9.34 124 8.68 124 8 124 C7.8453125 125.6396875 7.8453125 125.6396875 7.6875 127.3125 C6.21097901 139.00162452 2.07255659 150.86041818 -2.1640625 161.81640625 C-5.67262341 170.98129199 -8.80024335 180.28360017 -11.85668945 189.60693359 C-12.96495538 192.9715425 -14.11222085 196.29426091 -15.375 199.60546875 C-16.80854808 203.37444759 -18.06018081 207.19199584 -19.3046875 211.02734375 C-19.5123172 211.66520813 -19.7199469 212.30307251 -19.93386841 212.96026611 C-20.79940251 215.61960862 -21.66478431 218.27887228 -22.51513672 220.94311523 C-24.78492692 228.04034046 -27.06509749 234.852972 -30.98876953 241.23730469 C-32.56363461 243.98248235 -33.17445135 246.95578936 -34 250 C-34.79458268 251.92416364 -35.60915189 253.84012912 -36.4375 255.75 C-38.50993194 260.60802428 -40.06419979 265.40223594 -41.32421875 270.52734375 C-42.0318612 273.11657886 -42.98779642 275.5162394 -44 278 C-44.28875 279.0725 -44.5775 280.145 -44.875 281.25 C-45.75438236 284.18127452 -46.70985328 286.63224364 -48 289.375 C-49.76451575 293.19703227 -50.70045636 296.83242682 -51.50390625 300.94921875 C-52.20793507 303.85957409 -53.66415408 306.32830816 -55 309 C-55.80046573 311.97596462 -56.42813458 314.97247719 -57 318 C-57.66 318 -58.32 318 -59 318 C-59.10957031 318.61746094 -59.21914063 319.23492187 -59.33203125 319.87109375 C-60.55559002 326.40668814 -61.92357706 333.02151025 -65.0234375 338.9609375 C-66.10226991 341.21353957 -66.6220506 343.30710291 -67.125 345.75 C-67.29257812 346.54921875 -67.46015625 347.3484375 -67.6328125 348.171875 C-67.75398437 348.77515625 -67.87515625 349.3784375 -68 350 C-68.66 350 -69.32 350 -70 350 C-70.185625 351.5778125 -70.185625 351.5778125 -70.375 353.1875 C-70.92924915 356.56841983 -71.74163147 358.86287846 -73 362 C-73.88546968 364.77656446 -74.69229662 367.57496161 -75.5 370.375 C-75.81904297 371.46941406 -75.81904297 371.46941406 -76.14453125 372.5859375 C-77.07654728 375.78795575 -77.99743322 378.99063412 -78.87890625 382.20703125 C-80.93288523 389.15620751 -83.320889 395.99909803 -85.63476562 402.86523438 C-87.64158683 408.84562835 -89.59310193 414.82336687 -91.32104492 420.89086914 C-92.02062358 423.06406583 -92.89314529 425.06558256 -93.875 427.125 C-95.97268272 431.66735055 -97.40580858 436.33650677 -98.85400391 441.12011719 C-100.83165726 447.59270903 -103.02278987 453.98443676 -105.25 460.375 C-105.60352539 461.39223145 -105.95705078 462.40946289 -106.32128906 463.45751953 C-108.86538326 470.73076652 -108.86538326 470.73076652 -110 473 C-110.99 473 -111.98 473 -113 473 C-117.22503551 464.06563637 -120.64896262 455.4578731 -122.5703125 445.75 C-122.84383855 443.98346216 -122.84383855 443.98346216 -124 443 C-124.07325436 440.3013095 -124.09222351 437.63497444 -124.0625 434.9375 C-124.041875 432.318125 -124.02125 429.69875 -124 427 C-133.57 427 -143.14 427 -153 427 C-150.86069652 415.23383085 -150.86069652 415.23383085 -147.9375 409.95703125 C-146.91440012 407.82131026 -146.44907964 405.88408138 -146 403.5625 C-145.20194732 399.45217558 -143.78270677 395.97127369 -142.0078125 392.19140625 C-140.75855089 389.47498857 -139.73814688 386.70341288 -138.71875 383.89453125 C-138.03302724 382.08705549 -137.23745551 380.32240213 -136.4375 378.5625 C-135.32667337 375.80958184 -134.67432762 373.66695007 -134.125 370.8125 C-133.13249308 365.9409452 -131.26531653 361.60526116 -129.296875 357.0546875 C-127.68326913 353.25396525 -126.28329517 349.39649284 -124.8984375 345.5078125 C-124.1309521 343.36552718 -123.32511203 341.2454492 -122.5 339.125 C-120.72243853 334.45283023 -119.3648775 329.6515683 -117.96484375 324.85546875 C-117 322 -117 322 -115 319 C-114.16147587 316.27622263 -113.37586206 313.55998587 -112.625 310.8125 C-110.92525491 304.79356548 -108.96033335 299.52595559 -106 294 C-104.16814174 289.28318623 -102.86058245 284.46341361 -101.625 279.5625 C-100.64721487 275.87034262 -99.44651317 272.72772269 -97.625 269.375 C-94.79546234 264.08350812 -93.26098553 258.56396092 -91.69970703 252.80029297 C-90.77948396 249.44197681 -89.94933915 246.92400872 -88 244 C-87.45308625 242.41121555 -86.95701471 240.80443792 -86.5 239.1875 C-86.24089844 238.29417969 -85.98179687 237.40085937 -85.71484375 236.48046875 C-85.47894531 235.66191406 -85.24304688 234.84335937 -85 234 C-83.57009151 229.42429282 -81.8097718 225.02800278 -80.0078125 220.58984375 C-79.06340508 218.16293632 -78.23190937 215.72939346 -77.4375 213.25 C-76.60848182 210.67780305 -75.75938937 208.53882962 -74.5 206.125 C-73.15790385 203.32896636 -72.39159365 200.9220472 -71.625 197.9375 C-69.93629166 191.41375303 -67.49118942 185.25239698 -65 179 C-62.9581309 173.79594424 -61.24353985 168.58833269 -59.74609375 163.19921875 C-59 161 -59 161 -57 158 C-56.33841957 155.95415921 -56.33841957 155.95415921 -55.875 153.8125 C-55.58625 152.554375 -55.2975 151.29625 -55 150 C-54.34 150 -53.68 150 -53 150 C-52.34 146.37 -51.68 142.74 -51 139 C-50.34 139 -49.68 139 -49 139 C-48.87044922 138.03513672 -48.87044922 138.03513672 -48.73828125 137.05078125 C-47.69347006 130.33139921 -45.78001018 124.39183939 -43.23828125 118.09375 C-41.64619465 114.11604469 -40.30644745 110.07823462 -39 106 C-38.505 104.515 -38.505 104.515 -38 103 C-37.34 103 -36.68 103 -36 103 C-35.89042969 102.27554688 -35.78085937 101.55109375 -35.66796875 100.8046875 C-34.76352735 95.2898009 -33.63855118 90.96047621 -31 86 C-30.51189587 84.49068264 -30.05552413 82.97094508 -29.62109375 81.4453125 C-28.08634486 76.20969682 -26.32883607 71.07660921 -24.5 65.9375 C-22.2709518 59.64457571 -20.08795523 53.34130359 -18 47 C-17.34 47 -16.68 47 -16 47 C-15.91363281 46.34515625 -15.82726562 45.6903125 -15.73828125 45.015625 C-14.73253855 38.48291092 -12.88396566 32.93000509 -10.21875 26.89453125 C-9.13184454 24.31313078 -8.30378871 21.82099644 -7.5625 19.125 C-5.56331606 12.56767667 -2.70043748 6.3010208 0 0 Z " fill="#4285F2" transform="translate(804,184)"/>
<path d="M0 0 C1.65 0 3.3 0 5 0 C5.9973047 2.9919141 6.33050289 5.50643439 6.63256836 8.63867188 C6.74616196 9.79838501 6.85975555 10.95809814 6.97679138 12.1529541 C7.09659866 13.41216675 7.21640594 14.67137939 7.33984375 15.96875 C7.53407775 17.96380465 7.72831234 19.95885925 7.92257786 21.95391083 C8.1950067 24.76100087 8.46419334 27.56839855 8.73345947 30.37579346 C9.26244063 35.88286231 9.79795869 41.3893018 10.33245277 46.89583778 C10.52664353 48.89902688 10.72004994 50.90229063 10.91337585 52.90556335 C11.69742728 61.00018164 12.5091413 69.09086999 13.41734314 77.17260742 C14.4788146 86.85517391 15.29763475 96.03540252 11 105 C10.09786486 107.16405037 9.20239267 109.33088662 8.3125 111.5 C7.54306961 113.33392258 6.7727205 115.16746128 6 117 C5.34 117 4.68 117 4 117 C3.82984375 118.06541016 3.82984375 118.06541016 3.65625 119.15234375 C2.950616 122.21429131 1.85466223 124.73109843 0.5 127.5625 C-0.9955716 130.69711374 -2.29438561 133.59220325 -3 137 C-3.66 137 -4.32 137 -5 137 C-5.0825 137.78375 -5.165 138.5675 -5.25 139.375 C-6.24365069 144.177645 -8.08713518 148.49809489 -10 153 C-10.66 153 -11.32 153 -12 153 C-12.10183594 153.66386719 -12.20367187 154.32773437 -12.30859375 155.01171875 C-13.18318535 158.79173327 -14.58605015 162.23270859 -16.0625 165.8125 C-16.34416016 166.50537109 -16.62582031 167.19824219 -16.91601562 167.91210938 C-17.60674973 169.60967624 -18.30283728 171.30506312 -19 173 C-19.66 173 -20.32 173 -21 173 C-21.19142578 174.09248047 -21.19142578 174.09248047 -21.38671875 175.20703125 C-21.97192633 177.87214856 -22.76883923 180.17190332 -23.8125 182.6875 C-24.16441406 183.54472656 -24.51632812 184.40195312 -24.87890625 185.28515625 C-25.24886719 186.18105469 -25.61882812 187.07695313 -26 188 C-26.75219761 189.87411946 -27.50229442 191.74908386 -28.25 193.625 C-28.83333333 195.08333333 -29.41666667 196.54166667 -30 198 C-30.66 198 -31.32 198 -32 198 C-32.11085938 198.68320312 -32.22171875 199.36640625 -32.3359375 200.0703125 C-34.45087091 209.40090109 -39.13239354 218.44796486 -43.23706055 227.05834961 C-47.11312333 235.24614421 -50.53259456 243.63319571 -54 252 C-54.66 252 -55.32 252 -56 252 C-56.144375 252.7425 -56.28875 253.485 -56.4375 254.25 C-56.90187492 256.52027739 -57.41863569 258.75759479 -58 261 C-58.66 261 -59.32 261 -60 261 C-60.13148438 261.73476563 -60.26296875 262.46953125 -60.3984375 263.2265625 C-62.1008125 271.0751745 -66.07433592 278.36487073 -69.49145508 285.58886719 C-71.56753693 290.00145713 -73.38253809 294.40300298 -75 299 C-75.66066719 300.66905395 -76.32438252 302.3369416 -77 304 C-77.66 304 -78.32 304 -79 304 C-79.144375 304.7425 -79.28875 305.485 -79.4375 306.25 C-79.90187492 308.52027739 -80.41863569 310.75759479 -81 313 C-81.66 313 -82.32 313 -83 313 C-83.103125 313.66 -83.20625 314.32 -83.3125 315 C-84.91355148 321.98640646 -88.04444974 328.29592698 -91.10009766 334.73583984 C-93.54691936 339.93232653 -95.79754779 345.19588529 -98 350.5 C-100.61777515 356.79706438 -103.35456337 362.99795345 -106.28515625 369.15625 C-108.83065271 374.54536413 -111.17175705 380.01406226 -113.5 385.5 C-116.6277541 392.86486593 -119.86490253 400.15487048 -123.296875 407.3828125 C-125.58027797 412.23242523 -127.78189761 417.12017474 -130 422 C-150.46 422 -170.92 422 -192 422 C-191.11321134 416.67926804 -190.13242051 413.87807224 -187.6875 409.25 C-185.22511927 404.49312813 -183.00761388 399.74050836 -181.08203125 394.7421875 C-176.24033185 382.47188794 -170.45820212 370.70303941 -164.44921875 358.97265625 C-163.02057737 356.04220856 -161.77507676 353.0879784 -160.5625 350.0625 C-159.183285 346.70530899 -157.8129454 343.48351383 -155.9375 340.375 C-153.95456458 336.92085442 -152.56119233 333.49955836 -151.125 329.796875 C-148.10602117 322.2913582 -144.53915167 315.02051553 -140.875 307.8125 C-138.64935468 303.40757698 -136.7109021 298.97682742 -134.93359375 294.375 C-133.70269528 291.24367671 -132.33011286 288.18462817 -130.94921875 285.1171875 C-129.59396992 282.09436913 -128.29709071 279.04816318 -127 276 C-126.34 276 -125.68 276 -125 276 C-124.87044922 275.1646875 -124.87044922 275.1646875 -124.73828125 274.3125 C-123.79629024 269.19636534 -122.41155638 265.50405128 -119.31640625 261.3125 C-117.68673741 258.44969896 -116.81084943 255.52928017 -115.81030273 252.39941406 C-114.53219839 248.61477729 -112.90079128 245.00916845 -111.25 241.375 C-110.90582031 240.60881348 -110.56164062 239.84262695 -110.20703125 239.05322266 C-106.87802309 231.668129 -103.45753788 224.32565839 -100 217 C-99.34 217 -98.68 217 -98 217 C-97.89945312 216.16339844 -97.79890625 215.32679688 -97.6953125 214.46484375 C-96.91200463 210.56150623 -95.51537556 207.16167175 -93.875 203.5625 C-93.56369141 202.86584229 -93.25238281 202.16918457 -92.93164062 201.45141602 C-89.70443297 194.26243759 -86.3616777 187.12683214 -83 180 C-81.8516821 177.56365981 -80.70560277 175.12629165 -79.5625 172.6875 C-79.27632813 172.07712891 -78.99015625 171.46675781 -78.6953125 170.83789062 C-76.39333549 165.90142882 -74.19229809 160.92343929 -72 155.9375 C-69.62889632 150.55069319 -67.16854443 145.24611575 -64.5 140 C-59.65290241 130.46003066 -55.44915159 120.63430289 -51.18359375 110.82421875 C-46.66166753 100.42969372 -41.91970049 90.15578904 -37.0625 79.9140625 C-33.24356666 71.84968264 -29.52940444 63.75002517 -25.92773438 55.58618164 C-23.5909119 50.29917795 -21.17898687 45.05485654 -18.71459961 39.82592773 C-16.24086776 34.56010428 -13.86976584 29.25076447 -11.5 23.9375 C-7.88315019 15.84088146 -4.05955456 7.88415099 0 0 Z " fill="#4185F2" transform="translate(370,415)"/>
<path d="M0 0 C17.49 0 34.98 0 53 0 C53.06616129 35.75492035 53.12154421 71.50978287 53.15319599 107.26474693 C53.15694802 111.48785874 53.16083099 115.71097042 53.16479492 119.93408203 C53.16558185 120.77481229 53.16636878 121.61554255 53.16717956 122.48174949 C53.18022638 136.08705226 53.20387623 149.69231692 53.23145839 163.2975971 C53.25953275 177.26233625 53.27618055 191.22705548 53.28226548 205.19182169 C53.28637771 213.80584464 53.29935656 222.41975987 53.3237494 231.03374965 C53.33963166 236.94413414 53.34439473 242.85446309 53.34050413 248.76486735 C53.33858645 252.17267845 53.34148474 255.58030157 53.35761642 258.98807907 C53.37257239 262.68941666 53.36894174 266.39029578 53.36076355 270.09164429 C53.36950207 271.15976329 53.3782406 272.2278823 53.38724393 273.32836854 C53.33480309 282.12736394 51.16366511 289.53598076 47.8125 297.625 C47.46832031 298.46289062 47.12414062 299.30078125 46.76953125 300.1640625 C46.51558594 300.76992188 46.26164062 301.37578125 46 302 C45.34 302 44.68 302 44 302 C43.84724609 302.76957031 43.84724609 302.76957031 43.69140625 303.5546875 C42.7505036 306.88239971 41.34374144 309.97441913 39.9375 313.125 C39.62876953 313.82294678 39.32003906 314.52089355 39.00195312 315.23999023 C38.34238988 316.72979028 37.68137797 318.21894968 37.01904297 319.70751953 C36.00942293 321.97880179 35.00596057 324.25271482 34.00390625 326.52734375 C30.29063607 334.94064624 26.48947868 343.30594851 22.578125 351.62890625 C21.21763367 354.53510431 19.88202335 357.45005657 18.5625 360.375 C16.80085475 364.2737231 14.98920847 368.14587842 13.15649414 372.01147461 C9.73407148 379.23136886 6.4214146 386.48546501 3.25830078 393.82299805 C1.91881406 396.92714791 0.55751273 399.99838566 -1 403 C-2.65 403 -4.3 403 -6 403 C-6.11956432 366.93430653 -5.84086504 330.88469054 -5.28462309 294.82350487 C-5.20744332 289.81752922 -5.13207354 284.81152878 -5.05764771 279.80551147 C-4.28973379 228.21600443 -3.42448111 176.62805322 -2.53607559 125.04049683 C-2.47058848 121.23746029 -2.4052797 117.43442076 -2.34014511 113.63137817 C-2.15320563 102.71829577 -1.96438562 91.80524876 -1.77272797 80.89224815 C-1.71462884 77.58192722 -1.65718618 74.2715961 -1.60041046 70.96125221 C-1.1939213 47.30335218 -0.62884205 23.65325754 0 0 Z " fill="#4185F3" transform="translate(171,183)"/>
<path d="M0 0 C17.16 0 34.32 0 52 0 C54.24720407 7.86521423 54.24720407 7.86521423 54.5625 11.85546875 C54.63726563 12.72623047 54.71203125 13.59699219 54.7890625 14.49414062 C54.89347656 15.82735352 54.89347656 15.82735352 55 17.1875 C55.44123923 22.69890477 55.98309288 28.1149931 56.96875 33.55859375 C58.36873399 41.6117424 58.88789809 49.73218979 59.5 57.875 C60.2301707 67.54423012 61.06939414 77.11662395 62.52246094 86.71044922 C63.31414587 92.16400894 63.83526631 97.64176074 64.375 103.125 C64.63167851 105.66287536 64.88954857 108.20063042 65.1484375 110.73828125 C65.21577087 111.39863876 65.28310425 112.05899628 65.35247803 112.73936462 C66.19214598 120.93507547 67.09163204 129.12415779 68 137.3125 C68.08470551 138.07743774 68.16941101 138.84237549 68.25668335 139.63049316 C69.4293555 150.19447685 70.69868228 160.74194241 72.06420898 171.28295898 C72.85005555 177.45621425 73.41773545 183.58489653 73.69140625 189.8046875 C73.95092888 192.49189653 74.39101496 194.93389125 74.96337891 197.56298828 C76.01878811 202.7647047 76.51308277 207.89982865 76.89453125 213.1875 C77.63903682 222.52877326 78.63448185 231.82240868 79.76171875 241.125 C79.91778595 242.42074951 80.07385315 243.71649902 80.23464966 245.05151367 C80.88142372 250.40202027 81.53255497 255.75194426 82.19458008 261.10058594 C82.52666834 263.78637046 82.85391012 266.4726637 83.17597961 269.15966797 C83.47559385 271.65699902 83.78232792 274.15348972 84.09733582 276.64892578 C84.97849255 284.06941648 85.67371557 290.24791407 82 297 C81.68830524 298.34534919 81.41907043 299.70106943 81.1875 301.0625 C80.42496081 304.74310252 79.24362178 307.85930911 77.625 311.25 C75.21024808 316.3202709 73.5482731 321.41893842 71.96875 326.80078125 C70.78153302 330.72146957 69.36736941 334.53390514 67.9375 338.37109375 C67.00820547 340.97699049 66.20696175 343.5929524 65.4375 346.25 C64.45240412 349.634281 63.25384308 352.77220194 61.80859375 355.9921875 C60.32089238 359.68628656 59.25141546 363.51708384 58.10546875 367.328125 C56.70601266 371.97649507 55.25032435 376.60632908 53.79223633 381.23657227 C52.34039735 385.86293363 50.96697763 390.5060319 49.67578125 395.1796875 C49 397 49 397 47 399 C46.35232207 401.57061311 46.35232207 401.57061311 46 404 C44.02 404 42.04 404 40 404 C39.89977539 402.88592773 39.79955078 401.77185547 39.69628906 400.62402344 C37.98006767 381.60608816 36.24763379 362.59553112 34.0625 343.625 C32.33927356 328.64310207 30.89442874 313.64083351 29.5 298.625 C28.01402142 282.63738654 26.49768896 266.65548346 24.8125 250.6875 C24.73386719 249.93760803 24.65523438 249.18771606 24.57421875 248.4151001 C23.85212167 241.54733729 23.09920509 234.68758013 22.21257019 227.83892822 C21.0622131 218.95307125 20.36007266 210.07530435 19.7890625 201.13476562 C19.30080508 193.96664163 18.47876645 186.90495536 17.49072266 179.78930664 C16.76933194 174.21880648 16.30832567 168.63440047 15.85412598 163.03671265 C14.69734603 148.89709054 13.2754099 134.79156518 11.75 120.6875 C9.70286605 101.71267073 7.71510981 82.7323676 5.77819824 63.7460022 C5.47273446 60.75249005 5.16567753 57.75914886 4.85705566 54.76596069 C2.97747993 36.52623067 1.32747634 18.2904006 0 0 Z " fill="#4284F2" transform="translate(474,183)"/>
<path d="M0 0 C0.90073242 0.01933594 1.80146484 0.03867188 2.72949219 0.05859375 C33.56473522 0.82580799 63.55902291 7.01476673 93 16 C93 16.33 93 16.66 93 17 C1.92 17.495 1.92 17.495 -91 18 C-91.99 20.97 -92.98 23.94 -94 27 C-94.79778416 29.06823667 -95.60906405 31.13134914 -96.4375 33.1875 C-98.67200703 38.92095067 -100.39478936 44.70015609 -102.02734375 50.62890625 C-103.69309328 56.40216665 -105.7910459 62.00488439 -108.0390625 67.57421875 C-109.14756236 70.37250499 -110.07602858 73.21827198 -111.01171875 76.078125 C-111.80127042 78.41245169 -112.61839015 80.73006889 -113.45703125 83.046875 C-116.78485476 92.01136162 -116.78485476 92.01136162 -119.1875 101.25 C-119.97456896 104.88262596 -121.04794965 106.90925362 -123 110 C-123.68824554 112.32705972 -124.35187989 114.6614472 -125 117 C-125.73621756 119.27533904 -126.48688254 121.54604114 -127.25 123.8125 C-127.68881179 125.1210905 -128.1276134 126.4296844 -128.56640625 127.73828125 C-129.04416541 129.15888962 -129.52203487 130.57946091 -130 132 C-131.06459706 135.16596723 -132.12663663 138.33277997 -133.1875 141.5 C-133.43725586 142.24096924 -133.68701172 142.98193848 -133.94433594 143.74536133 C-135.03722407 147.00890819 -136.07284258 150.25934226 -137.00390625 153.57421875 C-138.06808997 157.23417609 -139.37329082 160.76272776 -140.75 164.3125 C-143.32460933 171.05236521 -145.67158069 177.84888393 -147.90722656 184.70825195 C-149.28485922 188.92159211 -150.76651479 193.0748178 -152.34155273 197.21826172 C-153.14425513 199.39034998 -153.80918773 201.58413786 -154.4375 203.8125 C-155.43664488 207.22710339 -156.55259184 210.5482177 -157.8125 213.875 C-160.15580816 220.14785569 -161.98690876 226.5664533 -163.8059082 233.00732422 C-164.04656006 233.8376416 -164.28721191 234.66795898 -164.53515625 235.5234375 C-164.85045288 236.635979 -164.85045288 236.635979 -165.17211914 237.77099609 C-166 240 -166 240 -167.47265625 242.40209961 C-169.14699119 245.25002129 -170.00565783 247.86684774 -170.90234375 251.04296875 C-171.23556641 252.19990234 -171.56878906 253.35683594 -171.91210938 254.54882812 C-172.41967773 256.3499707 -172.41967773 256.3499707 -172.9375 258.1875 C-175.02299769 265.55304386 -177.13316331 272.78144794 -180.11523438 279.84033203 C-181.03900993 282.09522127 -181.81523618 284.36869748 -182.5625 286.6875 C-183.45455254 289.45140049 -184.43968436 292.09878676 -185.625 294.75 C-186.81410482 297.56061138 -187.54523712 299.99856501 -188 303 C-188.66 302.67 -189.32 302.34 -190 302 C-190.53076172 299.44624329 -190.53076172 299.44624329 -190.9296875 295.9934082 C-191.08324707 294.70308182 -191.23680664 293.41275543 -191.39501953 292.08332825 C-191.55527922 290.65584244 -191.71526505 289.22832587 -191.875 287.80078125 C-192.04598238 286.33025248 -192.21770674 284.85980981 -192.39013672 283.38945007 C-192.75205159 280.28702679 -193.10788622 277.18398802 -193.45898438 274.08032227 C-193.90141897 270.16965204 -194.35384187 266.26023284 -194.81034851 262.35118294 C-196.52242739 247.6805991 -198.21643995 233.01254383 -199.40478516 218.28816223 C-199.67531428 215.02031766 -199.95862405 212.12412786 -201 209 C-201.16691091 207.66541035 -201.29404592 206.3256026 -201.39453125 204.984375 C-201.4608374 204.16187256 -201.52714355 203.33937012 -201.59545898 202.49194336 C-201.66708252 201.58710205 -201.73870605 200.68226074 -201.8125 199.75 C-202.60001879 190.44104395 -203.70372105 181.19720781 -204.9375 171.9375 C-206.76525246 158.18474114 -208.25866637 144.41206551 -209.63671875 130.60693359 C-210.25743016 124.44403688 -210.90703756 118.28428575 -211.5625 112.125 C-211.6867334 110.95026123 -211.8109668 109.77552246 -211.93896484 108.56518555 C-212.58270348 102.5648367 -213.31164765 96.59559912 -214.1875 90.625 C-216.08892617 76.68120805 -216.08892617 76.68120805 -215 70 C-212.94811137 67.95655536 -211.92382586 67 -209 67 C-208.76925781 66.42636719 -208.53851562 65.85273438 -208.30078125 65.26171875 C-204.34186388 58.37819575 -195.40741419 53.46816331 -188.9375 48.9375 C-188.37764404 48.54344971 -187.81778809 48.14939941 -187.2409668 47.7434082 C-183.24648097 45 -183.24648097 45 -181 45 C-181 44.34 -181 43.68 -181 43 C-179.54462432 42.16151196 -178.08559627 41.32936066 -176.625 40.5 C-175.81289063 40.0359375 -175.00078125 39.571875 -174.1640625 39.09375 C-172 38 -172 38 -170 38 C-170 37.34 -170 36.68 -170 36 C-167.7101766 34.9955866 -165.4183401 33.99632388 -163.125 33 C-162.47402344 32.71382812 -161.82304688 32.42765625 -161.15234375 32.1328125 C-156.2265625 30 -156.2265625 30 -154 30 C-154 29.34 -154 28.68 -154 28 C-152.94941406 27.61328125 -151.89882813 27.2265625 -150.81640625 26.828125 C-141.87454578 23.55681506 -141.87454578 23.55681506 -133.125 19.8125 C-129.39100661 18.09130686 -125.61360192 16.89878617 -121.65234375 15.80859375 C-118.81845894 14.98657353 -118.81845894 14.98657353 -115.44921875 13.5703125 C-110.07570969 11.52635084 -104.50367943 10.53215729 -98.875 9.4375 C-91.28832561 8.01902289 -91.28832561 8.01902289 -83.87109375 5.94140625 C-58.88049969 -2.25278854 -26.00091542 -0.61327168 0 0 Z " fill="#E84335" transform="translate(748,167)"/>
<path d="M0 0 C1.97503956 0.65834652 3.95467247 1.30299519 5.9375 1.9375 C10.22213072 3.33547416 14.13634657 4.93906656 18.109375 7.05078125 C21.30218389 8.65378241 24.63833509 9.79940539 28 11 C28 11.66 28 12.32 28 13 C28.71671875 13.11472656 29.4334375 13.22945312 30.171875 13.34765625 C33.14881551 14.03432623 35.52652893 15.06353331 38.25 16.4375 C39.12140625 16.86933594 39.9928125 17.30117187 40.890625 17.74609375 C43 19 43 19 44 21 C45.655611 21.93393441 47.34950522 22.80102783 49.0625 23.625 C49.98160156 24.07101563 50.90070313 24.51703125 51.84765625 24.9765625 C52.55792969 25.31429687 53.26820313 25.65203125 54 26 C54 26.66 54 27.32 54 28 C54.721875 28.268125 55.44375 28.53625 56.1875 28.8125 C60.50562279 30.6357074 63.36848463 32.05272694 66 36 C66.825 36.474375 67.65 36.94875 68.5 37.4375 C71 39 71 39 72 41.0625 C73.4078632 43.79023494 75.18466767 43.97000037 78 45 C79.8125 46.5 79.8125 46.5 81 48 C81 48.66 81 49.32 81 50 C81.57621094 50.25136719 82.15242187 50.50273437 82.74609375 50.76171875 C88.50800827 53.92727664 92.80367152 59.36837363 96 65 C96.845625 65.845625 97.69125 66.69125 98.5625 67.5625 C100.78008624 69.78008624 101.67419579 71.26000464 103 74 C103.89332031 74.85851562 103.89332031 74.85851562 104.8046875 75.734375 C111.23282631 82.36839726 115.6026327 91.15970808 118 100 C118.66 100 119.32 100 120 100 C120.84161854 102.08000011 121.67300763 104.16414146 122.5 106.25 C122.9640625 107.41015625 123.428125 108.5703125 123.90625 109.765625 C125 113 125 113 125 117 C125.66 117 126.32 117 127 117 C129.44408524 124.3549914 131.47458553 131.2501365 132 139 C132.66 139 133.32 139 134 139 C136.99983037 155.91495735 139 171.77352331 139 189 C117.55 189 96.1 189 74 189 C71.79938744 171.39509954 71.79938744 171.39509954 71.5625 164.8125 C71.20687432 157.62567653 69.85472051 150.9399636 68 144 C67.43351667 141.81352815 66.87088557 139.62605387 66.3125 137.4375 C65.93544922 136.01244141 65.93544922 136.01244141 65.55078125 134.55859375 C65 132 65 132 65 128 C64.34 128 63.68 128 63 128 C62.72905518 127.14003418 62.72905518 127.14003418 62.45263672 126.26269531 C57.70711861 111.2844714 57.70711861 111.2844714 51.06640625 97.08203125 C50 95 50 95 50 93 C49.34 93 48.68 93 48 93 C46.99491199 91.21118264 45.99607264 89.41885304 45 87.625 C44.443125 86.62726563 43.88625 85.62953125 43.3125 84.6015625 C42 82 42 82 42 80 C41.34 80 40.68 80 40 80 C38.80859375 78.41796875 38.80859375 78.41796875 37.4375 76.1875 C27.67842336 61.17533187 14.46336131 47.54315732 0 37 C-0.80695313 36.41089844 -1.61390625 35.82179687 -2.4453125 35.21484375 C-11.28517343 28.91055421 -20.42921964 23.12804775 -30 18 C-30 17.34 -30 16.68 -30 16 C-30.53367187 15.82984375 -31.06734375 15.6596875 -31.6171875 15.484375 C-40.65321661 12.54532055 -49.35244487 8.92690909 -58 5 C-57.67 3.35 -57.34 1.7 -57 0 C-57.7321875 0.08121094 -58.464375 0.16242188 -59.21875 0.24609375 C-67.47613298 0.72777442 -74.05203442 -0.65555053 -81.875 -3.125 C-91.66758207 -6.20095603 -101.42026799 -8.45798135 -111.5 -10.3125 C-112.15579041 -10.43506165 -112.81158081 -10.55762329 -113.48724365 -10.68389893 C-123.28551394 -12.50426701 -133.10551267 -13.85147433 -143 -15 C-143 -15.33 -143 -15.66 -143 -16 C-96.92352158 -19.07542645 -43.01783923 -18.86747335 0 0 Z " fill="#FABB04" transform="translate(912,184)"/>
<path d="M0 0 C21.69480287 -0.12103358 43.32239239 0.04825076 65 1 C65.12117187 2.02480469 65.24234375 3.04960938 65.3671875 4.10546875 C65.53610459 5.46618979 65.7053952 6.8268645 65.875 8.1875 C65.95363281 8.86103516 66.03226563 9.53457031 66.11328125 10.22851562 C66.60851093 14.13321116 67.45875025 17.39584673 69 21 C69.48476192 22.93105711 69.94201855 24.86917739 70.375 26.8125 C71.47343296 31.37435935 72.90442911 35.20599827 75.1484375 39.30859375 C76.24106745 41.47881745 76.69979295 43.59834356 77 46 C77.99 46 78.98 46 80 46 C84 52.75 84 52.75 84 55 C85.485 55.495 85.485 55.495 87 56 C87.90886852 57.41379547 88.81532402 58.82922459 89.70703125 60.25390625 C92.2646211 63.70781157 95.71142405 66.27022504 99 69 C99.94875 69.86625 100.8975 70.7325 101.875 71.625 C105.97769401 74.74304745 110.36002516 76.79907881 115 79 C116.35513443 79.7064801 117.70937578 80.41467731 119.0625 81.125 C123.222959 83.21799164 127.553665 84.64139764 132 86 C132 86.66 132 87.32 132 88 C133.11375 88.12375 134.2275 88.2475 135.375 88.375 C140.30460991 88.98457542 145.14244255 89.97473685 150 91 C147.77933676 93.55376272 146.29907782 94.37070839 143 95 C141.55444115 95.09732153 140.1052645 95.14785401 138.65649414 95.16113281 C137.8036232 95.17074036 136.95075226 95.1803479 136.07203674 95.19024658 C135.15236618 95.19449646 134.23269562 95.19874634 133.28515625 95.203125 C132.31960312 95.20882507 131.35404999 95.21452515 130.35923767 95.22039795 C128.30566499 95.2298491 126.25207714 95.23638239 124.19848633 95.24023438 C121.13268197 95.24978145 118.06759554 95.28073426 115.00195312 95.3125 C101.74318907 95.38165868 89.06328825 94.25678069 76 92 C76 91.34 76 90.68 76 90 C75.09121094 89.83564453 75.09121094 89.83564453 74.1640625 89.66796875 C61.78831858 87.32609721 51.92572369 83.1329729 41 77 C41 76.34 41 75.68 41 75 C40.34 74.814375 39.68 74.62875 39 74.4375 C32.64349956 71.39167687 27.81678111 66.09185672 23.421875 60.67578125 C21.98481509 58.92091521 21.98481509 58.92091521 20.109375 57.20703125 C7.20188108 43.70196817 2.93144447 26.03946675 0.9140625 8.03515625 C0.82487549 7.25789185 0.73568848 6.48062744 0.64379883 5.67980957 C0.42691424 3.78680011 0.2131302 1.89343584 0 0 Z " fill="#F9BA05" transform="translate(614,611)"/>
<path d="M0 0 C4.44268575 1.38637002 8.78054874 2.83901888 13 4.8125 C24.12128814 9.86059775 35.7058213 13.404428 47.609375 16.04296875 C50.86097705 16.96075965 53.21735318 18.11480989 56 20 C55.20421364 23.44840758 54.13364841 26.59905478 53 30 C32.54 30 12.08 30 -9 30 C-7.26539594 19.59237561 -4.19187447 9.67698681 0 0 Z " fill="#4384F0" transform="translate(579,807)"/>
<path d="M0 0 C5.54380399 5.54380399 4.39344613 17.78996941 4.75390625 25.30078125 C4.91990965 28.87526752 4.91990965 28.87526752 5.52734375 31.85546875 C6.17903586 36.19110637 6 40.61565784 6 45 C-22.71 45 -51.42 45 -81 45 C-81 44.34 -81 43.68 -81 43 C-52.95 43 -24.9 43 4 43 C2.49414688 21.41908858 2.49414688 21.41908858 0 0 Z " fill="#EF6626" transform="translate(980,328)"/>
<path d="M0 0 C0 0.33 0 0.66 0 1 C-4.46334184 2.72293135 -8.10201231 3.22240791 -12.875 3.125 C-14.02742187 3.10695313 -15.17984375 3.08890625 -16.3671875 3.0703125 C-17.23601563 3.04710937 -18.10484375 3.02390625 -19 3 C-19 2.67 -19 2.34 -19 2 C-12.6221448 0.82706111 -6.49678438 -0.29530838 0 0 Z " fill="#F8A80B" transform="translate(790,834)"/>
</svg>
